<?xml version="1.0" encoding="UTF-8" standalone="no"?>
<!-- Created with Inkscape (http://www.inkscape.org/) -->

<svg
   width="699.99976"
   height="339.99997"
   viewBox="0 0 185.20827 89.958324"
   version="1.1"
   id="svg1"
   inkscape:version="1.4.4 (dcaf3e7d9e, 2026-05-05)"
   sodipodi:docname="anatomy2svg"
   xmlns:inkscape="http://www.inkscape.org/namespaces/inkscape"
   xmlns:sodipodi="http://sodipodi.sourceforge.net/DTD/sodipodi-0.dtd"
   xmlns="http://www.w3.org/2000/svg"
   xmlns:svg="http://www.w3.org/2000/svg">
  <sodipodi:namedview
     id="namedview1"
     pagecolor="#000000"
     bordercolor="#ffffff"
     borderopacity="1"
     inkscape:showpageshadow="2"
     inkscape:pageopacity="0.0"
     inkscape:pagecheckerboard="0"
     inkscape:deskcolor="#0d0d0d"
     inkscape:document-units="mm"
     showgrid="true"
     inkscape:zoom="2"
     inkscape:cx="308.25"
     inkscape:cy="87"
     inkscape:window-width="1920"
     inkscape:window-height="1080"
     inkscape:window-x="0"
     inkscape:window-y="0"
     inkscape:window-maximized="1"
     inkscape:current-layer="layer1">
    <inkscape:grid
       id="grid1"
       units="px"
       originx="-136.5277"
       originy="-5.5375189"
       spacingx="7.9375"
       spacingy="7.9375"
       empcolor="#ffffff"
       empopacity="0.42352941"
       color="#ffffff"
       opacity="0.09019608"
       empspacing="4"
       enabled="true"
       visible="true" />
    <inkscape:grid
       id="grid2"
       units="px"
       originx="-136.5277"
       originy="-5.5375189"
       spacingx="3.96875"
       spacingy="3.96875"
       empcolor="#ffffff"
       empopacity="0"
       color="#ffffff"
       opacity="0.09803922"
       empspacing="8"
       enabled="true"
       visible="true" />
  </sodipodi:namedview>
  <defs
     id="defs1" />
  <g
     inkscape:label="Layer 1"
     inkscape:groupmode="layer"
     id="layer1"
     transform="translate(-136.5277,-5.537519)">
    <path
       id="rect4-6-0-8-0-3-6-2-9"
       style="fill:#deddda;stroke-width:0.564443;stroke-linecap:square;paint-order:stroke markers fill"
       d="m 139.17349,8.1834097 h 21.16667 V 29.350009 h -21.16667 z" />
    <path
       d="m 153.75765,27.783933 -7.97728,-0.171291 0.0734,-10.864769 8.17304,-0.342583 z m 0.88093,1.884206 c 0.56281,-0.04894 0.88092,-0.342583 0.95434,-0.905398 l 0.31811,-13.311788 c -0.0489,-0.562815 -0.34259,-0.880927 -0.9054,-0.954338 l -10.10619,0.415993 c -0.53835,0.07341 -0.83199,0.391524 -0.88093,0.929868 l -0.12235,12.675563 c 0.0489,0.562815 0.36705,0.856457 0.92987,0.929868 z M 147.1507,13.150754 c 0.26917,0 0.51387,-0.09788 0.68516,-0.293642 0.17129,-0.171292 0.26917,-0.391524 0.26917,-0.636226 0,-0.269172 -0.0979,-0.489404 -0.31811,-0.685165 l -2.64278,-2.42255 c -0.17129,-0.1712914 -0.39152,-0.244702 -0.61176,-0.244702 -0.26917,0 -0.51387,0.097881 -0.68516,0.2691722 -0.17129,0.1712914 -0.26917,0.3915232 -0.26917,0.6606954 0,0.2447024 0.0979,0.4649334 0.31811,0.6851654 l 2.64278,2.42255 c 0.19576,0.171291 0.39152,0.244702 0.61176,0.244702 z m 2.5449,-0.415993 c 0.56281,-0.04894 0.88092,-0.367053 0.92986,-0.929868 V 8.9418796 c 0,-0.244702 -0.0979,-0.4649338 -0.26917,-0.6362252 C 150.185,8.134363 149.96477,8.0364822 149.6956,8.012012 c -0.56282,0.073411 -0.88093,0.367053 -0.92987,0.9298676 v 2.8630134 c 0,0.269172 0.0979,0.464934 0.26917,0.636225 0.17129,0.171292 0.39152,0.269172 0.6607,0.293643 z m 2.71619,0.09788 c 0.26917,0 0.53834,-0.122351 0.75858,-0.342582 l 2.32466,-2.8385436 c 0.12236,-0.1712914 0.19577,-0.367053 0.19577,-0.5872848 -0.0979,-0.611755 -0.416,-0.9298676 -0.92987,-0.9298676 -0.29364,0 -0.53835,0.122351 -0.70964,0.3425828 l -2.32467,2.8385432 c -0.14682,0.171291 -0.22023,0.367053 -0.22023,0.587285 0.0734,0.611755 0.39152,0.929867 0.9054,0.929867 z"
       id="text16-8-7-8-8-20-4-2"
       style="font-size:24.4702px;line-height:11.6855px;font-family:'linja lipamanka';-inkscape-font-specification:'linja lipamanka';text-align:center;letter-spacing:0px;text-anchor:middle;stroke-width:0.545325;stroke-linecap:square"
       aria-label="sona" />
    <path
       id="rect4-6-0-8-0-3-6-2-9-1"
       style="fill:#deddda;stroke-width:0.564443;stroke-linecap:square;paint-order:stroke markers fill"
       d="m 139.17349,39.933411 h 21.16667 V 61.10001 h -21.16667 z" />
    <path
       d="m 149.64666,59.16688 c -1.05222,0 -1.98209,-0.244702 -2.78961,-0.758576 -0.80751,-0.489404 -1.44374,-1.125629 -1.90867,-1.908675 -0.46494,-0.758577 -0.70964,-1.566093 -0.70964,-2.42255 0,-0.929868 0.19576,-1.859735 0.61176,-2.765133 0.39152,-0.905397 0.97881,-1.639503 1.76185,-2.251258 0.75858,-0.587285 1.71292,-0.880927 2.86302,-0.880927 0.88092,0 1.76185,0.195761 2.61831,0.587284 0.85645,0.391524 1.56609,0.954338 2.1289,1.712914 0.56282,0.758577 0.83199,1.712914 0.83199,2.838544 0,1.29692 -0.2447,2.398079 -0.70964,3.254536 -0.46493,0.880927 -1.12562,1.541623 -1.93314,1.957616 -0.80752,0.415993 -1.73739,0.636225 -2.76513,0.636225 z m 0,1.859735 c 2.17784,0 3.91523,-0.709635 5.26109,-2.104437 1.34586,-1.394801 2.00656,-3.254536 2.00656,-5.579205 0,-1.468212 -0.36706,-2.716192 -1.07669,-3.768411 -0.70964,-1.052219 -1.63951,-1.835265 -2.76514,-2.39808 -1.12562,-0.562814 -2.32466,-0.831986 -3.59711,-0.856456 -1.22351,0 -2.27573,0.244702 -3.15666,0.734106 -0.9054,0.489403 -1.6395,1.125629 -2.20232,1.884205 -0.58728,0.783046 -1.02775,1.615033 -1.29692,2.52043 -0.29364,0.905398 -0.44046,1.786325 -0.44046,2.618312 0,1.22351 0.31811,2.349139 0.95434,3.401358 0.63622,1.052218 1.51715,1.908675 2.61831,2.56937 1.10116,0.660696 2.32467,0.978808 3.695,0.978808 z m -4.42911,-15.318344 c 0.61176,-0.07341 0.92987,-0.391524 0.92987,-0.929868 0,-0.171291 -0.0489,-0.318113 -0.14682,-0.489404 l -1.68845,-2.642782 c -0.19576,-0.293642 -0.46493,-0.440463 -0.78304,-0.440463 -0.61176,0.07341 -0.92987,0.391523 -0.92987,0.929867 0,0.171292 0.0489,0.342583 0.14682,0.513875 l 1.68844,2.642781 c 0.22024,0.269172 0.46494,0.415994 0.78305,0.415994 z m 4.6004,-0.905398 c 0.26917,0 0.4894,-0.09788 0.66069,-0.269172 0.17129,-0.171291 0.26918,-0.391523 0.26918,-0.660695 l -0.0734,-3.009835 c 0,-0.269172 -0.0979,-0.489404 -0.26917,-0.660695 -0.17129,-0.171292 -0.39152,-0.269173 -0.66069,-0.269173 -0.61176,0.122351 -0.92987,0.440464 -0.92987,0.954338 l 0.0734,3.009835 c 0.0979,0.611755 0.39152,0.905397 0.88093,0.905397 z m 4.47804,1.027749 c 0.29365,0 0.53835,-0.146822 0.75858,-0.415994 l 2.00656,-2.960894 c 0.12235,-0.171291 0.17129,-0.367053 0.17129,-0.538344 0,-0.220232 -0.0734,-0.415994 -0.2447,-0.636226 -0.17129,-0.195761 -0.416,-0.293642 -0.68517,-0.293642 -0.31811,0 -0.56281,0.146821 -0.75858,0.415993 l -2.00655,2.960895 c -0.12235,0.171291 -0.17129,0.342582 -0.17129,0.538344 0,0.244702 0.0979,0.464934 0.29364,0.636225 0.17129,0.195762 0.39152,0.293643 0.63622,0.293643 z"
       id="text16-8-7-8-8-20-4-2-6"
       style="font-size:24.4702px;line-height:11.6855px;font-family:'linja lipamanka';-inkscape-font-specification:'linja lipamanka';text-align:center;letter-spacing:0px;text-anchor:middle;stroke-width:0.545325;stroke-linecap:square"
       aria-label="toki" />
    <path
       id="rect4-6-0-8-0-3-6-2-9-1-6"
       style="fill:#deddda;stroke-width:0.564443;stroke-linecap:square;paint-order:stroke markers fill"
       d="m 139.17349,71.683411 h 21.16667 V 92.85001 h -21.16667 z" />
    <path
       d="m 149.64666,87.588918 c -0.88093,0 -1.59057,-0.220232 -2.15338,-0.685166 -0.56282,-0.440463 -0.97881,-1.052218 -1.29692,-1.835265 -0.31811,-0.783046 -0.51388,-1.688443 -0.63623,-2.716192 h 8.39328 c -0.0734,0.954338 -0.31811,1.933146 -0.70963,2.887484 -0.39153,0.856457 -0.88093,1.468212 -1.44375,1.810795 -0.58728,0.367052 -1.29692,0.538344 -2.15337,0.538344 z m 0.0979,1.859735 0.56281,-0.02447 c 1.19904,-0.122351 2.15338,-0.489404 2.91196,-1.125629 0.7341,-0.611755 1.29692,-1.370331 1.68844,-2.251259 0.39152,-0.856457 0.66069,-1.737384 0.80752,-2.593841 0.12235,-0.856457 0.19576,-1.541622 0.19576,-2.055497 0,-0.489404 -0.29364,-0.783046 -0.88093,-0.905397 h -10.49772 c -0.26917,0 -0.4894,0.09788 -0.66069,0.269172 -0.17129,0.195762 -0.26917,0.440464 -0.26917,0.709636 0.0734,1.394801 0.31811,2.691722 0.7341,3.890762 0.416,1.19904 1.05222,2.177847 1.93315,2.936424 0.85646,0.758576 2.03103,1.150099 3.47477,1.150099 z m -2.78961,-9.665729 c 0.24471,0 0.46494,-0.09788 0.6607,-0.293642 0.17129,-0.171292 0.26917,-0.391523 0.26917,-0.660696 0,-0.146821 -0.0489,-0.293642 -0.14682,-0.464933 l -1.17457,-1.982087 c -0.22023,-0.293642 -0.4894,-0.440463 -0.80752,-0.440463 -0.26917,0 -0.4894,0.09788 -0.66069,0.269172 -0.17129,0.171291 -0.26917,0.391523 -0.26917,0.660695 0,0.146822 0.0489,0.293643 0.12235,0.464934 l 1.19904,1.982086 c 0.22023,0.318113 0.4894,0.464934 0.80751,0.464934 z m 2.9609,-0.342583 c 0.61175,-0.09788 0.9054,-0.391523 0.9054,-0.905397 l 0.0734,-2.520431 c -0.0979,-0.611755 -0.416,-0.905397 -0.92987,-0.905397 -0.4894,0 -0.80752,0.293642 -0.92987,0.905397 l -0.0734,2.471491 c 0,0.269172 0.0979,0.489404 0.29364,0.660695 0.17129,0.195762 0.39153,0.293642 0.6607,0.293642 z m 2.81407,0.660696 c 0.26917,0 0.48941,-0.09788 0.70964,-0.318113 l 1.78632,-2.055497 c 0.14682,-0.171291 0.22023,-0.367053 0.22023,-0.587284 0,-0.513875 -0.29364,-0.831987 -0.90539,-0.954338 -0.26918,0 -0.48941,0.09788 -0.70964,0.318112 l -1.78632,2.055497 c -0.1713,0.195762 -0.24471,0.415994 -0.24471,0.636225 0,0.244702 0.0979,0.464934 0.26918,0.636226 0.17129,0.171291 0.39152,0.269172 0.66069,0.269172 z"
       id="text16-8-7-8-8-20-4-2-6-7"
       style="font-size:24.4702px;line-height:11.6855px;font-family:'linja lipamanka';-inkscape-font-specification:'linja lipamanka';text-align:center;letter-spacing:0px;text-anchor:middle;stroke-width:0.545325;stroke-linecap:square"
       aria-label="kalama" />
    <path
       id="rect4-6-0-8-0-3-6-2-9-11"
       style="fill:#deddda;stroke-width:0.564443;stroke-linecap:square;paint-order:stroke markers fill"
       d="m 170.92349,8.1833792 h 21.16667 V 29.349978 h -21.16667 z" />
    <path
       d="m 187.39186,9.3823127 c -0.416,0 -0.80752,0.2202318 -1.02775,0.611755 l -1.17457,2.1289073 c -0.0979,0.195762 -0.14682,0.391523 -0.14682,0.611755 0,0.636225 0.46493,1.24798 1.19904,1.24798 0.41599,0 0.83198,-0.220232 1.05221,-0.611755 l 1.17457,-2.104437 c 0.0979,-0.195762 0.14683,-0.391523 0.14683,-0.611755 0,-0.636225 -0.48941,-1.2724503 -1.22351,-1.2724503 z m -12.99368,1.2724503 c 0,0.220232 0.0489,0.415993 0.14682,0.611755 l 1.17457,2.104437 c 0.22023,0.391523 0.63623,0.611755 1.05222,0.611755 0.7341,0 1.19904,-0.611755 1.19904,-1.24798 0,-0.220232 -0.0489,-0.415993 -0.14682,-0.611755 l -1.17457,-2.1289073 c -0.22023,-0.3915232 -0.61176,-0.611755 -1.02775,-0.611755 -0.73411,0 -1.22351,0.6362253 -1.22351,1.2724503 z m 7.09636,-2.8874835 c -0.68517,0 -1.22351,0.5383444 -1.22351,1.22351 v 2.4470195 c 0,0.685166 0.53834,1.22351 1.22351,1.22351 0.68516,0 1.22351,-0.538344 1.22351,-1.22351 V 8.9907895 c 0,-0.6851656 -0.53835,-1.22351 -1.22351,-1.22351 z m -9.78808,15.0736425 c 0,0.220232 0.0734,0.440464 0.19576,0.636226 l 2.96089,4.747218 c 0.24471,0.367053 0.63623,0.587285 1.05222,0.587285 0.70964,0 1.19904,-0.611755 1.19904,-1.22351 v -2.838543 c 0,-1.982086 0.53835,-3.768411 1.3948,-5.040861 0.85646,-1.27245 1.93315,-1.908676 2.98537,-1.908676 1.05222,0 2.15337,0.636226 3.00983,1.908676 0.85646,1.27245 1.3948,3.058775 1.3948,5.040861 v 2.838543 c 0,0.685166 0.53835,1.22351 1.22351,1.22351 0.68517,0 1.22351,-0.538344 1.22351,-1.22351 v -2.838543 c 0,-2.42255 -0.68516,-4.698278 -1.83526,-6.411192 -1.1501,-1.712914 -2.88749,-2.985365 -5.01639,-2.985365 -2.12891,0 -3.84182,1.272451 -4.99192,2.985365 -0.95434,1.394801 -1.5661,3.181126 -1.76186,5.089801 l -0.78304,-1.24798 c -0.24471,-0.367053 -0.63623,-0.587285 -1.02775,-0.587285 -0.70964,0 -1.22351,0.636225 -1.22351,1.24798 z"
       id="text16-8-7-8-8-20-4-2-3"
       style="font-size:24.4702px;line-height:11.6855px;font-family:nasin-nanpa;-inkscape-font-specification:nasin-nanpa;text-align:center;letter-spacing:0px;text-anchor:middle;stroke-width:0.545325;stroke-linecap:square"
       aria-label="pana" />
    <path
       id="rect4-6-0-8-0-3-6-2-9-1-3"
       style="fill:#deddda;stroke-width:0.564443;stroke-linecap:square;paint-order:stroke markers fill"
       d="m 170.92349,39.93338 h 21.16667 v 21.166599 h -21.16667 z" />
    <path
       d="m 177.57931,48.815955 h 7.83046 v 8.56457 h -7.83046 z m -2.44702,-1.22351 v 11.01159 c 0,0.685166 0.53834,1.22351 1.22351,1.22351 h 10.27748 c 0.68516,0 1.22351,-0.538344 1.22351,-1.22351 v -11.01159 c 0,-0.685165 -0.53835,-1.22351 -1.22351,-1.22351 H 176.3558 c -0.68517,0 -1.22351,0.538345 -1.22351,1.22351 z m 12.4798,-6.925066 c -0.416,0 -0.83199,0.220232 -1.05222,0.611755 l -1.22351,2.128907 c -0.12235,0.195762 -0.17129,0.391523 -0.17129,0.611755 0,0.611755 0.51387,1.22351 1.22351,1.22351 0.41599,0 0.83198,-0.220232 1.05222,-0.611755 l 1.22351,-2.128907 c 0.12235,-0.195762 0.17129,-0.391523 0.17129,-0.611755 0,-0.611755 -0.51388,-1.22351 -1.22351,-1.22351 z m -13.45861,1.22351 c 0,0.220232 0.0489,0.415993 0.17129,0.611755 l 1.22351,2.128907 c 0.22023,0.391523 0.63622,0.611755 1.05222,0.611755 0.70963,0 1.22351,-0.611755 1.22351,-1.22351 0,-0.220232 -0.0489,-0.415993 -0.17129,-0.611755 l -1.22351,-2.128907 c -0.22024,-0.391523 -0.63623,-0.611755 -1.05222,-0.611755 -0.70964,0 -1.22351,0.611755 -1.22351,1.22351 z m 7.34106,-2.863013 c -0.68517,0 -1.22351,0.538344 -1.22351,1.223509 v 2.44702 c 0,0.685166 0.53834,1.22351 1.22351,1.22351 0.68516,0 1.22351,-0.538344 1.22351,-1.22351 v -2.44702 c 0,-0.685165 -0.53835,-1.223509 -1.22351,-1.223509 z"
       id="text16-8-7-8-8-20-4-2-6-2"
       style="font-size:24.4702px;line-height:11.6855px;font-family:nasin-nanpa;-inkscape-font-specification:nasin-nanpa;text-align:center;letter-spacing:0px;text-anchor:middle;stroke-width:0.545325;stroke-linecap:square"
       aria-label="sona" />
    <path
       id="rect4-6-0-8-0-3-6-2-9-1-6-7"
       style="fill:#deddda;stroke-width:0.564443;stroke-linecap:square;paint-order:stroke markers fill"
       d="m 170.92349,71.68338 h 21.16667 v 21.166599 h -21.16667 z" />
    <path
       d="m 187.61209,72.417364 c -0.416,0 -0.83199,0.220231 -1.05222,0.611755 l -1.22351,2.128907 c -0.12235,0.195762 -0.17129,0.391523 -0.17129,0.611755 0,0.611755 0.51387,1.22351 1.22351,1.22351 0.41599,0 0.83198,-0.220232 1.05222,-0.611755 l 1.22351,-2.128907 c 0.12235,-0.195762 0.17129,-0.391524 0.17129,-0.611755 0,-0.611755 -0.51388,-1.22351 -1.22351,-1.22351 z m -13.45861,1.22351 c 0,0.220231 0.0489,0.415993 0.17129,0.611755 l 1.22351,2.128907 c 0.22023,0.391523 0.63622,0.611755 1.05222,0.611755 0.70963,0 1.22351,-0.611755 1.22351,-1.22351 0,-0.220232 -0.0489,-0.415993 -0.17129,-0.611755 l -1.22351,-2.128907 c -0.22024,-0.391524 -0.63623,-0.611755 -1.05222,-0.611755 -0.70964,0 -1.22351,0.611755 -1.22351,1.22351 z m 7.34106,-2.863014 c -0.68517,0 -1.22351,0.538345 -1.22351,1.22351 v 2.44702 c 0,0.685166 0.53834,1.22351 1.22351,1.22351 0.68516,0 1.22351,-0.538344 1.22351,-1.22351 v -2.44702 c 0,-0.685165 -0.53835,-1.22351 -1.22351,-1.22351 z m -7.95282,14.070365 c 0,4.380166 3.57265,7.952815 7.95282,7.952815 4.38016,0 7.95281,-3.572649 7.95281,-7.952815 0,-4.380166 -3.57265,-7.952815 -7.95281,-7.952815 -4.38017,0 -7.95282,3.572649 -7.95282,7.952815 z m 7.95282,-5.505795 c 3.0343,0 5.50579,2.47149 5.50579,5.505795 0,3.034305 -2.47149,5.505795 -5.50579,5.505795 -3.03431,0 -5.5058,-2.47149 -5.5058,-5.505795 0,-3.034305 2.47149,-5.505795 5.5058,-5.505795 z"
       id="text16-8-7-8-8-20-4-2-6-7-5"
       style="font-size:24.4702px;line-height:11.6855px;font-family:nasin-nanpa;-inkscape-font-specification:nasin-nanpa;text-align:center;letter-spacing:0px;text-anchor:middle;stroke-width:0.545325;stroke-linecap:square"
       aria-label="toki" />
    <path
       id="rect4-6-0-8-0-3-6-2-9-17"
       style="fill:#deddda;stroke-width:0.564443;stroke-linecap:square;paint-order:stroke markers fill"
       d="m 202.67349,8.1833792 h 21.16667 V 29.349978 h -21.16667 z" />
    <path
       d="m 204.06821,18.142624 v 1.003278 c 0,5.065332 4.111,9.176325 9.17633,9.176325 5.06533,0 9.17632,-4.110993 9.17632,-9.176325 v -1.003278 z m 2.10444,2.031027 h 14.14378 c -0.51388,3.523708 -3.52371,6.11755 -7.07189,6.11755 -3.54818,0 -6.55802,-2.593842 -7.07189,-6.11755 z m 6.04414,-5.089802 h 2.0555 V 8.9662993 h -2.0555 z m 3.89076,0.611755 1.61503,1.22351 3.67053,-4.89404 -1.61503,-1.22351 z m -5.72603,0 -3.67053,-4.89404 -1.61503,1.22351 3.67053,4.89404 z"
       id="text16-8-7-8-8-20-4-2-2"
       style="font-size:24.4702px;line-height:11.6855px;font-family:'linja laso';-inkscape-font-specification:'linja laso';text-align:center;letter-spacing:0px;text-anchor:middle;stroke-width:0.545325;stroke-linecap:square"
       aria-label="kalama" />
    <path
       id="rect4-6-0-8-0-3-6-2-9-1-1"
       style="fill:#deddda;stroke-width:0.564443;stroke-linecap:square;paint-order:stroke markers fill"
       d="m 202.67349,39.93338 h 21.16667 v 21.166599 h -21.16667 z" />
    <path
       d="m 214.27229,47.347723 c -3.93971,0 -7.1453,3.181126 -7.1453,7.120828 h 2.03102 c 0,-2.814072 2.3002,-5.089801 5.11428,-5.089801 2.81407,0 5.0898,2.275729 5.0898,5.089801 h 2.03102 c 0,-3.939702 -3.18112,-7.120828 -7.12082,-7.120828 z m 5.0898,13.752253 h 2.03102 v -6.631425 h -2.03102 z m -15.80775,-5.089802 3.57265,5.089802 h 2.03102 v -6.631425 h -2.03102 v 3.083246 l -1.90868,-2.716193 z m 9.6902,-10.717947 h 2.03102 v -5.089802 h -2.03102 z m 3.89076,0.489404 1.76185,1.003278 2.49596,-4.453576 -1.76185,-1.003279 z m -5.72603,0 -2.49596,-4.453577 -1.78632,1.003279 2.49596,4.453576 z"
       id="text16-8-7-8-8-20-4-2-6-6"
       style="font-size:24.4702px;line-height:11.6855px;font-family:'linja laso';-inkscape-font-specification:'linja laso';text-align:center;letter-spacing:0px;text-anchor:middle;stroke-width:0.545325;stroke-linecap:square"
       aria-label="pana" />
    <path
       id="rect4-6-0-8-0-3-6-2-9-1-6-78"
       style="fill:#deddda;stroke-width:0.564443;stroke-linecap:square;paint-order:stroke markers fill"
       d="m 202.67349,71.68338 h 21.16667 v 21.166599 h -21.16667 z" />
    <path
       d="m 212.21679,77.042211 h 2.0555 V 71.95241 h -2.0555 z m 3.89076,0.489404 1.78633,1.003279 2.49596,-4.453577 -1.78633,-1.003278 z m -5.72603,0 -2.49596,-4.453576 -1.78632,1.003278 2.49596,4.453577 z m -3.25453,2.055497 V 92.84996 h 12.2351 V 79.587112 Z m 2.03102,2.055497 h 8.17305 v 9.176325 h -8.17305 z"
       id="text16-8-7-8-8-20-4-2-6-7-59"
       style="font-size:24.4702px;line-height:11.6855px;font-family:'linja laso';-inkscape-font-specification:'linja laso';text-align:center;letter-spacing:0px;text-anchor:middle;stroke-width:0.545325;stroke-linecap:square"
       aria-label="sona" />
    <path
       id="rect4-6-0-8-0-3-6-2-9-11-7"
       style="fill:#deddda;stroke-width:0.564443;stroke-linecap:square;paint-order:stroke markers fill"
       d="m 234.42349,8.1833487 h 21.16667 V 29.349948 h -21.16667 z" />
    <path
       d="m 239.39085,20.858806 q 0,-0.856457 0.29365,-1.468212 0.31811,-0.636225 0.31811,-0.660696 0,-0.318112 0.46493,-0.954337 0.46494,-0.660696 0.83199,-0.856457 0.41599,-0.220232 0.61175,-0.464934 0.22024,-0.244702 0.24471,-0.391523 0.0489,-0.146822 0.22023,-0.269173 0.17129,-0.122351 0.56281,-0.171291 0.46494,-0.07341 0.83199,-0.171291 0.39152,-0.122351 0.66069,-0.122351 0.416,0 1.44375,0.220231 1.05222,0.220232 1.29692,0.220232 0.29364,0 0.78304,0.171292 0.48941,0.171291 0.9054,0.367053 0.41599,0.171291 0.46493,0.195761 0.31812,0.09788 0.31812,0.244702 0,0.146821 0.17129,0.244702 0.17129,0.09788 0.17129,0.195762 0,0.09788 0.14682,0.269172 0.17129,0.146821 0.39152,0.440464 0.22024,0.293642 0.34259,0.611755 0.2447,0.587284 0.29364,0.636225 0.0979,0.09788 0.0979,0.440463 0,0.195762 0.0489,0.415994 0.0734,0.195761 0.0979,0.244702 0.0245,0.04894 -0.0245,0.146821 -0.0734,0.04894 -0.12235,0.269172 -0.0489,0.220232 -0.17129,0.611755 -0.0979,0.367053 -0.31811,0.685166 -0.22024,0.318112 -0.39153,0.758576 -0.17129,0.415993 -0.41599,0.660695 -0.17129,0.171292 -0.22023,0.318113 -0.0489,0.122351 -0.0489,0.195762 0.0245,0.07341 -0.0734,0.146821 -0.0734,0.07341 -0.31812,0.171291 -0.46493,0.195762 -0.46493,0.293643 0,0.122351 -0.51387,0.318112 -0.51388,0.195762 -1.17457,0.391523 -0.6607,0.195762 -0.83199,0.269172 -0.39152,0.195762 -1.1501,0.195762 -0.92987,0 -1.66397,-0.220232 -0.73411,-0.220232 -1.07669,-0.415993 -0.34258,-0.220232 -0.36705,-0.220232 -0.19577,0 -0.61176,-0.220232 -0.41599,-0.244702 -0.46493,-0.367053 -0.0489,-0.195761 -0.22024,-0.244702 -0.31811,-0.122351 -0.70963,-1.22351 -0.39152,-1.125629 -0.46493,-1.174569 -0.19577,-0.122351 -0.19577,-0.734106 z m 8.85822,-3.254537 q -0.0489,0 -0.31812,-0.195761 -0.26917,-0.195762 -0.90539,-0.391524 -0.63623,-0.220231 -1.61504,-0.220231 -0.83198,0 -1.54162,0.220231 -0.68517,0.195762 -1.07669,0.415994 -0.36705,0.220232 -0.68516,0.587285 -0.31812,0.342582 -0.36706,0.440463 -0.0489,0.09788 -0.12235,0.220232 -0.0979,0.244702 -0.2447,0.244702 -0.12235,0 -0.31811,0.562815 -0.17129,0.538344 -0.17129,0.929867 0,0.587285 0.75857,1.884206 0.75858,1.29692 1.56609,1.443741 0.48941,0.09788 0.61176,0.171292 0.34258,0.171291 1.41927,0.171291 0.88093,0 1.22351,-0.146821 0.36705,-0.146821 0.41599,-0.146821 0.12236,0 0.48941,-0.122351 0.39152,-0.146821 0.97881,-0.611755 0.61175,-0.489404 0.95433,-1.19904 0.53835,-1.125629 0.53835,-1.566093 0,-0.758576 -0.2447,-1.27245 -0.14682,-0.318113 -0.68517,-0.856457 -0.51387,-0.562815 -0.66069,-0.562815 z m -10.76689,-4.502516 q 0,-0.244702 0.17129,-0.489404 0.19576,-0.269173 0.53834,-0.269173 0.22024,0 0.73411,0.464934 0.51387,0.440464 0.61176,0.440464 0.0734,0 0.17129,0.171291 0.0979,0.171291 0.22023,0.171291 0.12235,0 0.36705,0.318113 0.2447,0.318113 0.2447,0.587285 0,0.244702 -0.22023,0.391523 -0.19576,0.122351 -0.41599,0.146821 l -0.19576,0.02447 q -0.22024,0 -0.68517,-0.440463 -0.44046,-0.464934 -0.61175,-0.464934 -0.14683,0 -0.26918,-0.171291 -0.12235,-0.171292 -0.22023,-0.171292 -0.44046,-0.293642 -0.44046,-0.709635 z m 11.72122,-0.587285 q 0.53835,-0.220232 1.32139,-0.856457 0.78305,-0.660696 1.19904,-0.660696 0.75858,0 0.75858,0.758577 0,0.318112 -0.12235,0.464933 -0.0979,0.122351 -0.41599,0.293643 -0.31812,0.171291 -0.85646,0.513874 -0.51387,0.342583 -0.92987,0.587285 -0.39152,0.220231 -0.56281,0.269172 -0.2447,0.07341 -0.39153,0.171291 -0.12235,0.09788 -0.34258,0.09788 -0.70963,0 -0.70963,-0.489404 0,-0.293642 0.29364,-0.636225 0.31811,-0.342583 0.75857,-0.513874 z m -5.43238,0.880927 q 0,-0.02447 0.0734,-0.367053 0.0734,-0.342583 0.14682,-0.905397 0.0734,-0.562815 0.0734,-1.101159 0,-0.220232 -0.0489,-0.367053 -0.12235,-0.415994 0.44047,-0.7341064 0.46493,-0.2202318 0.4894,0.04894 0,0.146821 0.2447,0.244702 0.19576,0.04894 0.19576,0.538344 0,0.856457 -0.12235,1.394802 -0.12235,0.513874 -0.12235,1.052218 0,0.318113 -0.31811,0.611755 -0.29364,0.293643 -0.58729,0.293643 -0.46493,0 -0.46493,-0.709636 z"
       id="text16-8-7-8-8-20-4-2-3-3"
       style="font-size:24.4702px;line-height:11.6855px;font-family:'sitelen seli kiwen asuki';-inkscape-font-specification:'sitelen seli kiwen asuki';text-align:center;letter-spacing:0px;text-anchor:middle;stroke-width:0.545325;stroke-linecap:square"
       aria-label="toki" />
    <path
       id="rect4-6-0-8-0-3-6-2-9-1-3-4"
       style="fill:#deddda;stroke-width:0.564443;stroke-linecap:square;paint-order:stroke markers fill"
       d="m 234.42349,39.93335 h 21.16667 v 21.166599 h -21.16667 z" />
    <path
       d="m 243.50185,49.990494 q 0.17129,0 1.22351,-0.02447 1.05222,-0.02447 2.03103,-0.04894 l 1.00328,-0.02447 q 2.5449,0 3.32794,0.122351 0.53835,0.09788 0.70964,0.195761 0.17129,0.09788 0.34258,0.415994 0.12235,0.244702 0.12235,0.415993 0,0.269172 -0.34258,0.758576 -0.31811,0.489404 -0.31811,0.929868 0,1.003278 -0.416,2.153377 -0.39152,1.12563 -0.70963,1.12563 -0.0979,0 -0.88093,0.685165 -0.75858,0.660695 -1.10116,0.734106 -0.31811,0.04894 -0.31811,0.342583 0,0.244702 -0.0734,0.293642 -0.0489,0.04894 -0.39152,0.07341 -0.0245,0 -1.00328,0.171291 -0.97881,0.171292 -1.37033,0.171292 -0.56282,-0.07341 -1.00328,-0.07341 -1.00328,-0.02447 -1.90868,-0.415993 -0.9054,-0.415994 -1.02775,-0.440464 -0.4894,-0.09788 -0.9788,-0.367053 -0.46494,-0.269172 -0.58729,-0.538344 -0.0734,-0.146821 -0.73411,-1.125629 -0.66069,-0.978808 -0.68516,-1.19904 l -0.0245,-0.07341 q -0.0245,-0.07341 -0.0734,-0.195761 -0.0489,-0.146822 -0.0979,-0.318113 -0.0489,-0.171291 -0.12235,-0.415993 -0.0489,-0.244702 -0.0979,-0.513875 -0.0489,-0.269172 -0.0734,-0.587284 -0.0245,-0.342583 -0.0245,-0.660696 0,-0.611755 0.39152,-1.052218 0.39152,-0.440464 0.7341,-0.513875 0.12236,-0.02447 1.49269,-0.02447 l 1.46821,0.02447 q 1.46821,0 1.51715,0 z m 6.82719,2.128908 q 0,-0.244702 -0.22024,-0.391523 -0.19576,-0.146822 -0.66069,-0.195762 -0.44046,-0.07341 -0.78305,-0.07341 -0.34258,-0.02447 -0.9788,-0.02447 -2.27573,0 -3.69501,0.146821 -1.41927,0.146822 -3.54817,0.171292 h -0.78305 l 0.0489,0.611755 q 0.0979,0.611755 -0.0245,0.734106 -0.12235,0.146821 0.31811,0.783046 0.36706,0.562815 0.6607,1.076689 0.19576,0.318113 0.53834,0.587285 0.36706,0.269172 0.56282,0.269172 0.22023,0 0.22023,0.04894 0,0.122351 0.39152,0.342583 0.416,0.220232 1.22351,0.415994 0.83199,0.195761 1.76186,0.195761 0.80751,0 1.41927,-0.293642 0.63622,-0.293643 0.66069,-0.293643 0.0489,0 0.36706,-0.293642 0.34258,-0.293642 0.70963,-0.342583 0.46494,-0.07341 0.46494,-0.342583 0,-0.220231 0.22023,-0.342582 0.22023,-0.146822 0.26917,-0.269173 0.0245,-0.09788 0.19576,-0.367053 0.17129,-0.269172 0.31811,-0.660695 0.1713,-0.391523 0.24471,-0.856457 z m -11.03606,-7.757053 q 0.44046,0 1.00327,0.464933 0.58729,0.464934 1.05222,0.954338 0.46494,0.464934 0.6607,0.464934 0.22023,0 0.44046,0.342583 0.22023,0.318112 0.22023,0.660695 0,0.587285 -0.58728,0.587285 -0.39152,0 -0.97881,-0.391523 -0.58728,-0.391524 -0.70963,-0.440464 -0.14683,-0.04894 -0.36706,-0.269172 -0.19576,-0.244702 -0.53834,-0.342583 -0.29364,-0.09788 -0.73411,-0.391523 -0.41599,-0.318113 -0.41599,-0.538345 0,-0.146821 0.0245,-0.318112 0.0245,-0.195762 0.26917,-0.489404 0.2447,-0.293642 0.6607,-0.293642 z m 7.78152,2.079966 q 0,-0.04894 0,-0.09788 0.0245,-0.07341 0.0489,-0.244702 0.0489,-0.171292 0.0979,-0.293643 0.0734,-0.146821 0.22023,-0.244702 0.14682,-0.122351 0.34259,-0.122351 0.26917,0 1.37033,-1.125629 1.12563,-1.150099 1.46821,-1.29692 0.22023,-0.07341 0.51387,-0.07341 h 0.0245 q 0.63623,0 0.63623,0.831987 0,0.391523 -0.63623,0.807516 -0.34258,0.220232 -1.02775,0.880927 -0.66069,0.660696 -1.22351,1.19904 -0.56281,0.538345 -0.70963,0.538345 -0.31811,-0.195762 -0.51387,-0.195762 -0.61176,0 -0.61176,-0.562815 z m -3.30348,-3.254536 q 0,-0.220232 -0.0489,-0.636225 -0.0489,-0.415994 -0.0489,-0.636225 0,-0.391524 0.19576,-0.660696 0.22024,-0.269172 0.39153,-0.367053 0.19576,-0.09788 0.29364,-0.09788 l 0.29364,0.146822 q 0.39153,0.146821 0.39153,2.349139 0,1.468212 -0.0979,1.859735 -0.0734,0.391523 -0.39152,0.391523 -0.51387,0 -0.7341,-0.244702 -0.19577,-0.269172 -0.24471,-0.562814 -0.0245,-0.318113 -0.0979,-0.342583 -0.0979,-0.02447 -0.0979,-0.122351 0,-0.04894 0.0979,-0.391523 0.0979,-0.342583 0.0979,-0.685166 z"
       id="text16-8-7-8-8-20-4-2-6-2-7"
       style="font-size:24.4702px;line-height:11.6855px;font-family:'sitelen seli kiwen asuki';-inkscape-font-specification:'sitelen seli kiwen asuki';text-align:center;letter-spacing:0px;text-anchor:middle;stroke-width:0.545325;stroke-linecap:square"
       aria-label="kalama" />
    <path
       id="rect4-6-0-8-0-3-6-2-9-1-6-7-7"
       style="fill:#deddda;stroke-width:0.564443;stroke-linecap:square;paint-order:stroke markers fill"
       d="m 234.42349,71.68335 h 21.16667 v 21.166599 h -21.16667 z" />
    <path
       d="m 239.66002,86.7324 q 0,-0.122351 0.17129,-0.489404 0.1713,-0.391523 0.1713,-0.587285 0,-0.440464 0.75857,-1.590563 0.75858,-1.174569 0.78305,-1.27245 0.0979,-0.440464 0.66069,-0.856457 0.58729,-0.415994 1.05222,-0.611755 0.48941,-0.220232 0.56282,-0.220232 0.26917,0 0.53834,-0.07341 0.29364,-0.07341 0.83199,-0.07341 0.66069,0 1.10116,0.09788 0.44046,0.09788 0.63622,0.195761 0.22023,0.07341 0.29364,0.07341 0.12236,0 0.12236,0.09788 0,0.09788 0.41599,0.244702 0.31811,0.09788 0.92987,0.611755 0.61175,0.489404 0.61175,0.660695 0,0.07341 0.17129,0.171291 0.17129,0.09788 0.17129,0.244702 0,0.220232 0.14683,0.367053 0.19576,0.220232 0.4894,1.272451 0.29364,1.027748 0.29364,1.517152 0,0.489404 0.14682,1.321391 0.17129,0.807516 0.29365,1.076689 0.12235,0.220231 0,0.220231 -0.12236,0 -0.12236,0.318113 0,0.318113 -0.12235,0.440464 -0.0979,0.122351 -0.46493,0.318112 -0.31811,0.146821 -0.39152,0.171292 -0.0734,0 -0.31812,-0.146822 -0.22023,-0.122351 -0.22023,-0.367053 0,-0.02447 -0.0245,-0.07341 -0.0245,-0.07341 -0.0489,-0.195762 -0.0245,-0.146821 -0.0734,-0.342583 -0.0245,-0.220231 -0.0489,-0.636225 -0.0245,-0.440463 -0.0489,-0.978808 -0.0245,-1.517152 -0.22023,-1.933146 -0.0979,-0.220231 -0.19576,-0.489404 -0.0734,-0.269172 -0.12235,-0.415993 -0.0489,-0.146821 -0.12236,-0.195761 -0.0979,-0.04894 -0.0979,-0.269173 0,-0.09788 -0.34258,-0.513874 -0.31811,-0.415993 -0.88093,-0.856457 -0.53834,-0.440463 -1.00327,-0.538344 -0.24471,-0.04894 -0.56282,-0.171292 -0.29364,-0.146821 -0.53834,-0.146821 -0.48941,0 -1.07669,0.244702 -0.56282,0.244702 -0.85646,0.587285 l -0.39152,0.269172 q -0.416,0.244702 -0.416,0.415994 0,0.146821 -0.17129,0.342582 -0.17129,0.171292 -0.17129,0.293643 0,0.09788 -0.0979,0.293642 -0.0979,0.171292 -0.19576,0.318113 -0.0734,0.122351 -0.0245,0.122351 0.0245,0 -0.0979,0.195761 -0.0979,0.171292 -0.2447,0.489404 -0.14683,0.293643 -0.14683,0.489404 0,0.09788 -0.19576,0.831987 -0.17129,0.709636 -0.17129,1.19904 0,0.02447 0.0245,0.489404 0.0489,0.440463 0.0489,0.685165 0,0.489404 -0.2447,0.783047 -0.22023,0.269172 -0.36705,0.318112 -0.14682,0.02447 -0.2447,0.02447 -0.26918,0 -0.58729,-0.220232 -0.31811,-0.244702 -0.31811,-0.440464 0,-0.146821 -0.14682,-0.318112 -0.14682,-0.195762 -0.14682,-0.244702 -0.0245,-0.269173 -0.14683,-0.611755 -0.0979,-0.342583 -0.14682,-0.342583 -0.0979,0 -0.56281,-0.611755 -0.46494,-0.611755 -0.46494,-0.734106 0,-0.04894 -0.34258,-0.367053 -0.34258,-0.318113 -0.34258,-0.636225 0,-0.293643 0.19576,-0.464934 0.22023,-0.195762 0.56282,-0.195762 0.31811,0 1.07668,0.831987 0.78305,0.831987 0.92987,0.831987 0.0979,0 0.0979,-0.244702 z m -2.34914,-8.760332 q 0,-0.244702 0.17129,-0.440463 0.1713,-0.195762 0.48941,-0.195762 0.53834,0 1.59056,1.027749 1.05222,1.027748 1.12563,1.027748 0.0245,0 0.0489,0.07341 0.0489,0.07341 0.0734,0.195761 0.0489,0.122351 0.0489,0.244702 0,0.440464 -0.51387,0.440464 -0.39152,0 -0.78305,-0.244702 -0.39152,-0.269172 -0.85646,-0.660696 -0.44046,-0.415993 -0.7341,-0.587284 -0.6607,-0.391524 -0.6607,-0.880928 z m 13.45861,0.611755 q -0.14682,0.220232 -0.26917,0.220232 -0.12235,0 -0.75858,0.660696 -0.63622,0.660695 -0.85645,0.660695 -0.22023,0 -0.22023,-0.342583 0,-0.660695 0.36705,-1.174569 0.39152,-0.513875 1.27245,-1.296921 2.03103,-1.810795 2.44702,-1.810795 0.12235,0 0.29364,0.195762 0.19576,0.171291 0.19576,0.464934 0,0.440463 -0.56281,1.003278 -0.53835,0.538344 -1.07669,0.856457 -0.51387,0.318112 -0.56281,0.318112 -0.0979,0 -0.26918,0.244702 z m -7.39,-2.079967 q 0,-0.146821 0,-0.391523 0.0245,-0.244702 0.0245,-0.415993 0,-0.562815 -0.12235,-0.905398 -0.0979,-0.342582 -0.0979,-0.367053 0,-0.146821 0.12235,-0.391523 0.12235,-0.269172 0.22023,-0.318112 0.0979,-0.07341 0.34259,-0.04894 0.46493,0.02447 0.58728,0.293643 0.0245,0.07341 -0.0245,0.122351 -0.0245,0.02447 -0.0245,0.04894 0,0.02447 0.19576,0.269172 0.19576,0.220232 0.19576,0.489404 0,0.04894 -0.0734,0.807517 -0.0734,0.734106 -0.0734,1.27245 0,0.905398 -0.34258,0.905398 -0.14682,0 -0.31811,-0.04894 -0.17129,-0.04894 -0.39153,-0.391523 -0.22023,-0.342583 -0.22023,-0.929868 z"
       id="text16-8-7-8-8-20-4-2-6-7-5-2"
       style="font-size:24.4702px;line-height:11.6855px;font-family:'sitelen seli kiwen asuki';-inkscape-font-specification:'sitelen seli kiwen asuki';text-align:center;letter-spacing:0px;text-anchor:middle;stroke-width:0.545325;stroke-linecap:square"
       aria-label="pana" />
    <path
       id="rect4-6-0-8-0-3-6-2-9-11-7-2"
       style="fill:#deddda;stroke-width:0.564443;stroke-linecap:square;paint-order:stroke markers fill"
       d="m 266.17349,8.1833792 h 21.16667 V 29.349978 h -21.16667 z" />
    <path
       d="m 280.97425,14.082964 0.7408,0.645211 0.78859,0.477933 1.79225,-2.437461 1.52939,-2.055115 -0.97977,-0.7407967 -0.86028,-0.4301402 -1.55328,2.4135649 z m -5.7352,-5.2572693 0.0478,3.0109813 -0.0239,2.270185 1.02756,0.119483 0.97976,-0.0239 -0.0239,-2.198495 0.0239,-3.0587749 -0.97976,-0.1194834 z m -7.62304,2.7720153 1.55328,1.863941 1.4577,1.744457 0.81248,-0.334553 0.81249,-0.788591 -1.07535,-1.290421 -2.1268,-2.580841 -0.88418,0.621314 z m 9.74984,6.97783 3.20216,0.04779 0.0478,4.134126 v 3.919055 l -4.44478,0.04779 -3.96685,-0.07169 -0.0239,-2.604738 0.0478,-5.376752 z m 5.0183,-1.983425 h -4.22971 l -7.28849,0.07169 -0.31065,0.50183 -0.26287,0.884177 -0.0956,7.933697 -0.0478,2.509152 0.62132,0.21507 6.57158,-0.14338 4.13413,0.0239 h 1.24263 l -0.0478,-2.724221 v -3.417225 l 0.0717,-5.185579 z"
       id="text16-8-7-8-8-20-4-2-3-3-1"
       style="font-size:24.4702px;line-height:11.6855px;font-family:Nishiki-teki-lili;-inkscape-font-specification:Nishiki-teki-lili;text-align:center;letter-spacing:0px;text-anchor:middle;stroke-width:0.545325;stroke-linecap:square"
       aria-label="sona" />
    <path
       id="rect4-6-0-8-0-3-6-2-9-1-3-4-6"
       style="fill:#deddda;stroke-width:0.564443;stroke-linecap:square;paint-order:stroke markers fill"
       d="m 266.17349,39.93338 h 21.16667 v 21.166599 h -21.16667 z" />
    <path
       d="m 281.01009,46.382573 0.62132,0.621313 0.90807,0.454037 1.62498,-2.174598 1.69666,-2.341874 -0.59742,-0.573521 -1.24262,-0.57352 -1.50549,2.317978 z m -4.13412,3.871262 1.79225,0.50183 1.24263,1.00366 0.88417,1.242628 0.35845,1.624974 -0.28676,1.911734 -0.93197,1.314318 -1.36211,0.78859 -1.88783,0.262863 -1.84005,-0.21507 -1.57718,-0.693003 -1.00366,-1.099248 -0.52573,-1.792251 0.21507,-1.768354 0.83639,-1.624974 1.26652,-1.003661 1.19483,-0.35845 z m 0.54962,-1.959528 -2.22239,0.0239 -1.62497,0.525726 -1.81615,0.931971 -1.05145,1.386007 -0.81249,2.580842 0.14338,2.150701 0.64521,2.174598 1.29042,1.457697 1.95953,0.836384 2.19849,0.406243 2.1985,-0.14338 2.38966,-0.884177 1.57719,-1.481594 0.86028,-2.102908 v -2.317978 l -0.59742,-1.935631 -1.4338,-1.983424 -1.74446,-1.099247 z m -2.27018,-7.384074 0.0239,2.915395 v 2.150701 l 1.00367,0.21507 0.95586,0.0239 -0.0239,-2.126805 0.0239,-3.106568 -0.95586,-0.119483 z m -7.33628,2.676428 1.60108,2.102908 1.31431,1.553284 0.7647,-0.382347 0.7169,-0.812487 -1.38601,-1.792251 -1.57718,-1.983424 -0.95587,0.549623 z"
       id="text16-8-7-8-8-20-4-2-6-2-7-5"
       style="font-size:24.4702px;line-height:11.6855px;font-family:Nishiki-teki-lili;-inkscape-font-specification:Nishiki-teki-lili;text-align:center;letter-spacing:0px;text-anchor:middle;stroke-width:0.545325;stroke-linecap:square"
       aria-label="toki" />
    <path
       id="rect4-6-0-8-0-3-6-2-9-1-6-7-7-0"
       style="fill:#deddda;stroke-width:0.564443;stroke-linecap:square;paint-order:stroke markers fill"
       d="m 266.17349,71.68338 h 21.16667 v 21.166599 h -21.16667 z" />
    <path
       d="m 280.99815,78.491038 0.7169,0.621314 0.78859,0.454037 1.60107,-2.150702 1.67277,-2.365771 -0.88418,-0.836384 -0.81248,-0.43014 -1.60108,2.509151 z m -5.44845,-5.61572 -0.0239,2.365772 -0.0717,3.058775 1.26652,0.119483 0.64521,-0.04779 0.0478,-2.987085 0.0717,-2.389668 -0.93197,-0.119484 z m -7.55135,2.724222 1.21873,1.529387 1.76836,2.222391 0.90807,-0.549623 0.54963,-0.645211 -1.40991,-1.816147 -1.55328,-1.959528 -0.88418,0.549624 z m 3.24995,11.255336 -0.43014,-1.266524 -0.11948,-1.529388 6.18924,-0.0239 5.23337,0.07169 -0.11948,1.481594 -0.54963,1.577181 -0.83638,1.051453 -1.17094,0.884178 -1.88784,0.64521 -2.1029,0.04779 -1.88784,-0.525727 -1.33822,-0.93197 z m 12.90421,-1.362111 0.14338,-2.055114 -0.16728,-0.669107 -0.43014,-0.740797 -3.10657,0.119483 -9.20022,-0.04779 -2.60474,-0.07169 -0.16727,1.50549 0.14338,1.768355 0.50183,2.102907 0.81248,1.529388 1.07535,1.242627 1.72057,0.955867 1.88783,0.573521 2.1746,0.09559 2.29408,-0.35845 2.27019,-1.14704 1.386,-1.481595 0.86028,-1.768354 z"
       id="text16-8-7-8-8-20-4-2-6-7-5-2-3"
       style="font-size:24.4702px;line-height:11.6855px;font-family:Nishiki-teki-lili;-inkscape-font-specification:Nishiki-teki-lili;text-align:center;letter-spacing:0px;text-anchor:middle;stroke-width:0.545325;stroke-linecap:square"
       aria-label="kalama" />
    <path
       id="path529-0"
       style="font-variation-settings:'opsz' 12, 'wght' 700;fill:#ff7800;stroke:none;stroke-width:1.41115;stroke-linecap:square;stroke-dasharray:none;paint-order:stroke markers fill"
       d="m 149.75685,12.59344 a 1.7639406,1.7639403 0 0 0 -1.7642,1.76371 1.7639406,1.7639403 0 0 0 1.7642,1.76424 1.7639406,1.7639403 0 0 0 1.7637,-1.76424 1.7639406,1.7639403 0 0 0 -1.7637,-1.76371 z m 0,0.8816 a 0.88200355,0.88200343 0 0 1 0.8816,0.88211 0.88200355,0.88200343 0 0 1 -0.8816,0.88212 0.88200355,0.88200343 0 0 1 -0.8821,-0.88212 0.88200355,0.88200343 0 0 1 0.8821,-0.88211 z" />
    <path
       id="path529-0-5"
       style="font-variation-settings:'opsz' 12, 'wght' 700;fill:#ff7800;stroke:none;stroke-width:1.41115;stroke-linecap:square;stroke-dasharray:none;paint-order:stroke markers fill"
       d="m 181.50685,17.88458 a 1.7639406,1.7639403 0 0 0 -1.7642,1.76371 1.7639406,1.7639403 0 0 0 1.7642,1.76424 1.7639406,1.7639403 0 0 0 1.7637,-1.76424 1.7639406,1.7639403 0 0 0 -1.7637,-1.76371 z m 0,0.8816 a 0.88200355,0.88200343 0 0 1 0.8816,0.88211 0.88200355,0.88200343 0 0 1 -0.8816,0.88212 0.88200355,0.88200343 0 0 1 -0.8821,-0.88212 0.88200355,0.88200343 0 0 1 0.8821,-0.88211 z" />
    <path
       id="path529-0-5-6"
       style="font-variation-settings:'opsz' 12, 'wght' 700;fill:#ff7800;stroke:none;stroke-width:1.41115;stroke-linecap:square;stroke-dasharray:none;paint-order:stroke markers fill"
       d="m 213.24485,16.88028 a 1.7639406,1.7639403 0 0 0 -1.7642,1.76371 1.7639406,1.7639403 0 0 0 1.7642,1.76424 1.7639406,1.7639403 0 0 0 1.7637,-1.76424 1.7639406,1.7639403 0 0 0 -1.7637,-1.76371 z m 0,0.8816 a 0.88200355,0.88200343 0 0 1 0.8816,0.88211 0.88200355,0.88200343 0 0 1 -0.8816,0.88212 0.88200355,0.88200343 0 0 1 -0.8821,-0.88212 0.88200355,0.88200343 0 0 1 0.8821,-0.88211 z" />
    <path
       id="path529-0-5-6-5"
       style="font-variation-settings:'opsz' 12, 'wght' 700;fill:#ff7800;stroke:none;stroke-width:1.41115;stroke-linecap:square;stroke-dasharray:none;paint-order:stroke markers fill"
       d="m 244.41355,14.00582 a 1.7639406,1.7639403 0 0 0 -1.7642,1.76371 1.7639406,1.7639403 0 0 0 1.7642,1.76424 1.7639406,1.7639403 0 0 0 1.7637,-1.76424 1.7639406,1.7639403 0 0 0 -1.7637,-1.76371 z m 0,0.8816 a 0.88200355,0.88200343 0 0 1 0.8816,0.88211 0.88200355,0.88200343 0 0 1 -0.8816,0.88212 0.88200355,0.88200343 0 0 1 -0.8821,-0.88212 0.88200355,0.88200343 0 0 1 0.8821,-0.88211 z" />
    <path
       id="path529-0-5-6-5-0"
       style="font-variation-settings:'opsz' 12, 'wght' 700;fill:#ff7800;stroke:none;stroke-width:1.41115;stroke-linecap:square;stroke-dasharray:none;paint-order:stroke markers fill"
       d="m 276.27345,18.22288 a 1.7639406,1.7639403 0 0 0 -1.7642,1.76371 1.7639406,1.7639403 0 0 0 1.7642,1.76424 1.7639406,1.7639403 0 0 0 1.7637,-1.76424 1.7639406,1.7639403 0 0 0 -1.7637,-1.76371 z m 0,0.8816 a 0.88200355,0.88200343 0 0 1 0.8816,0.88211 0.88200355,0.88200343 0 0 1 -0.8816,0.88212 0.88200355,0.88200343 0 0 1 -0.8821,-0.88212 0.88200355,0.88200343 0 0 1 0.8821,-0.88211 z" />
    <path
       id="rect4-6-0-0-9-7-8-5"
       style="fill:#deddda;stroke-width:0.705556;stroke-linecap:square;paint-order:stroke markers fill"
       d="m 297.92349,8.1833639 h 21.16662 V 29.349967 h -21.16662 z" />
    <path
       d="m 306.50719,16.592452 c -0.31974,0.159869 -0.57553,0.447633 -0.76737,0.703423 -0.44764,0.67145 -0.76737,1.406848 -0.92724,2.174219 -0.22382,0.575528 -0.28777,1.215004 -0.31974,1.85448 -0.0639,0.255791 -0.19184,0.575529 -0.1279,0.895267 0,0.351712 -0.0639,0.703423 -0.0639,1.023161 0,0.06395 0,0.159869 0,0.223817 0,0.511581 -0.032,0.959214 -0.032,1.438821 0.032,0.383686 0.032,0.735397 0.032,1.087109 -0.1279,-0.223816 -0.25579,-0.447633 -0.35171,-0.703423 -0.22382,-0.511581 -0.44764,-0.991188 -0.67145,-1.502769 -0.1279,-0.127895 -0.31974,-0.223817 -0.44764,-0.351712 -0.15987,-0.127895 -0.22381,-0.287764 -0.38368,-0.415659 -0.1279,-0.09592 -0.47961,0 -0.47961,0.383685 0,0.319738 0.0959,0.607503 0.22382,0.895267 0.35171,0.863292 0.63947,1.790533 1.11908,2.557904 0.22382,0.287764 0.44763,0.543554 0.57553,0.831319 0.19184,0.25579 0.41566,0.479607 0.54355,0.703423 0.15987,0.287764 0.38369,0.511581 0.6075,0.639476 0.22382,0.03197 0.44764,0.03197 0.60751,0.09592 0.28776,0 0.51158,-0.223817 0.6075,-0.447634 0,-0.191842 -0.0959,-0.383685 -0.1279,-0.543554 -0.19184,-0.831319 -0.28776,-1.59869 -0.28776,-2.398035 v -3.325275 c 0,-0.479608 0.19184,-0.863293 0.19184,-1.278953 0.032,-0.415659 0.15987,-0.767371 0.31974,-1.18303 0.1279,-0.479607 0.25579,-0.92724 0.54355,-1.374874 0.2558,-0.415659 0.67145,-0.735397 1.15106,-0.831318 0.38369,0 0.76737,0.06395 1.11908,0.191842 0.70343,0.223817 1.27896,0.639476 1.82251,1.08711 0.41566,0.383685 0.76737,0.799345 0.99119,1.342899 0.12789,0.447633 0.31974,0.863293 0.41566,1.310926 0.12789,0.575528 0.25579,1.215005 0.28776,1.790533 0.0639,0.543555 0.15987,1.087109 0.19185,1.630664 0.0639,0.895266 0.12789,1.822506 0.35171,2.653825 0.0959,0.287764 0.28776,0.543555 0.54355,0.639476 0.28777,0.03197 0.41566,-0.223816 0.54356,-0.415659 0.0639,-0.159869 0.0959,-0.383686 0.0959,-0.575529 0,-0.159869 -0.032,-0.287764 -0.032,-0.447633 0,-0.09592 0,-0.191843 0,-0.287764 0,-0.383686 -0.0639,-0.735397 -0.0639,-1.119083 -0.032,-1.470795 -0.22382,-2.973563 -0.60751,-4.412385 -0.15986,-0.415659 -0.31973,-0.799345 -0.4796,-1.215004 -0.064,-0.287764 -0.25579,-0.511581 -0.38369,-0.767371 -0.22381,-0.351712 -0.54355,-0.67145 -0.86329,-0.991188 -0.44763,-0.351712 -0.86329,-0.735397 -1.3429,-0.991188 -0.6075,-0.319738 -1.215,-0.575528 -1.91843,-0.735397 -0.25579,-0.09592 -0.54355,-0.127895 -0.83132,-0.127895 -0.0959,0 -0.19184,0 -0.28776,0 -0.35171,0 -0.76737,0.06395 -1.08711,0.287764 z m -5.05186,-6.202918 c -0.22382,0.127896 -0.41566,0.447634 -0.41566,0.735398 0,0.127895 0.032,0.25579 0.0959,0.351712 0.19184,0.383685 0.51158,0.671449 0.83132,0.959214 0.44763,0.479607 0.89527,0.991188 1.3429,1.438821 0.31974,0.319738 0.76737,0.543554 1.24698,0.543554 0.032,0 0.064,0 0.0959,0 0.0959,0 0.19184,-0.06395 0.25579,-0.127895 0.15987,-0.287764 0.12789,-0.639476 -0.0639,-0.92724 -0.12789,-0.159869 -0.35171,-0.25579 -0.54355,-0.383686 -0.35171,-0.319738 -0.67145,-0.67145 -0.99119,-1.055135 -0.35171,-0.351712 -0.63948,-0.799345 -1.02316,-1.151057 -0.19185,-0.159869 -0.38369,-0.223817 -0.6075,-0.383686 z m 13.1732,-0.6075018 c -0.12789,0.2238168 -0.22381,0.4476328 -0.31973,0.6075018 -0.31974,0.831319 -0.76737,1.59869 -1.11909,2.366062 -0.35171,0.575528 -0.67145,1.119083 -0.95921,1.758559 -0.064,0.223816 -0.032,0.543554 0.15987,0.703423 0.0639,0.09592 0.15987,0.223817 0.35171,0.287765 0.25579,0.03197 0.57553,0.03197 0.76737,-0.191843 0.22382,-0.223817 0.35171,-0.479607 0.47961,-0.799345 0.22382,-0.383686 0.54355,-0.735398 0.7354,-1.151057 0.22381,-0.447633 0.54355,-0.799345 0.73539,-1.246978 0.22382,-0.511581 0.57553,-0.959214 0.60751,-1.502769 -0.032,-0.25579 -0.0959,-0.575528 -0.35172,-0.7034236 -0.19184,-0.095921 -0.35171,-0.2238166 -0.51158,-0.3517118 -0.15987,0.063948 -0.38368,0.063948 -0.57553,0.2238166 z m -6.20291,-1.1830306 c -0.28777,0.2557904 -0.28777,0.6714498 -0.28777,1.0231616 -0.032,0.5115808 0,0.9911878 -0.032,1.5027688 -0.064,0.319738 0.032,0.639476 -0.064,0.959214 0.0959,0.447633 0.064,0.92724 0.28777,1.3429 0.12789,0.351711 0.4796,0.543554 0.83131,0.575528 0.38369,-0.09592 0.41566,-0.479607 0.51159,-0.767371 -0.032,-0.41566 -0.0639,-0.799345 -0.0639,-1.215005 0,-0.159869 0,-0.319738 0.032,-0.479607 0.032,-0.543554 0,-1.087109 0.15987,-1.6306636 0.032,-0.095921 0.0639,-0.1918428 0.0639,-0.2877642 0,-0.3517118 -0.22382,-0.7034236 -0.54356,-0.8313188 -0.15987,-0.095921 -0.31973,-0.1918428 -0.51158,-0.319738 -0.12789,-0.063948 -0.31973,0.031974 -0.38368,0.1278952 z"
       id="text16-8-7-8-4-2-6-72-9"
       style="font-size:31.9738px;line-height:15.2688px;font-family:nasin-sitelen-pu;-inkscape-font-specification:nasin-sitelen-pu;text-align:center;letter-spacing:0px;text-anchor:middle;stroke-width:0.697006;stroke-linecap:square"
       aria-label="pana" />
    <path
       id="rect4-6-0-0-9-7-8-5-0"
       style="fill:#deddda;stroke-width:0.705556;stroke-linecap:square;paint-order:stroke markers fill"
       d="m 297.92349,39.933365 h 21.16662 v 21.166603 h -21.16662 z" />
    <path
       d="m 304.26902,47.766923 c 0.19185,0.06395 0.38369,0.06395 0.51158,0.09592 0.19185,0.06395 0.35172,0.127895 0.54356,0.191843 0.31974,0.03197 0.63947,-0.06395 0.92724,-0.06395 0.38368,0 0.7354,0 1.15106,0.06395 0.25579,0 0.54355,0 0.79934,0.03197 0.22382,0 0.44763,0.06395 0.63948,0 0.22381,0 0.4796,0.03197 0.70342,0.03197 0.1279,0 0.25579,0 0.38369,-0.03197 0.35171,-0.03197 0.67145,0 1.02316,-0.03197 0.28776,-0.09592 0.51158,-0.127896 0.76737,-0.191843 0.28776,-0.09592 0.57553,-0.191843 0.86329,-0.03197 0.032,0.223817 0.032,0.447633 0.032,0.67145 0,0.25579 0,0.511581 0,0.735397 0,0.159869 0,0.287764 0,0.447633 0.0959,0.799345 0.0639,1.566717 0.15986,2.366062 -0.0639,0.543554 -0.0639,1.087109 -0.0639,1.630663 0,0.223817 0.0959,0.41566 0.0959,0.575529 -0.0959,0.383686 -0.032,0.735397 -0.0959,1.087109 0,0.127895 0.032,0.223817 0.032,0.351712 0,0.319738 -0.032,0.607502 -0.032,0.92724 0,0.127895 0,0.223817 0,0.351712 0.032,0.191843 0.032,0.415659 0.032,0.607502 0,0.191843 0,0.383686 -0.032,0.575529 0,0.09592 0,0.223816 0,0.319738 0,0.191842 0,0.383685 0,0.575528 0,0.191843 0,0.351712 -0.032,0.543555 -0.22381,0.03197 -0.44763,0.03197 -0.67145,0.03197 -0.28776,0.09592 -0.6075,0.06395 -0.92724,0.09592 -0.44763,0.03197 -0.92724,0.09592 -1.37487,0.191843 -1.05514,0.159869 -2.04632,0.383685 -3.06949,0.543554 -0.44763,0.06395 -0.89526,0.159869 -1.37487,0.255791 -0.44763,0.127895 -0.89527,0.223816 -1.37487,0.287764 0,-0.92724 0.032,-1.822507 0.0959,-2.781721 0,-0.831319 0.15987,-1.694611 0.15987,-2.589878 0,-0.223816 0.0959,-0.447633 0.0959,-0.735397 -0.032,-0.25579 0.032,-0.479607 0,-0.767371 0,-0.319738 0.0959,-0.575529 0.032,-0.895267 0.0639,-0.351712 0,-0.767371 0.0639,-1.119083 0.032,-0.287764 0,-0.543554 0,-0.831319 0,-0.351711 0,-0.767371 0.032,-1.119083 -0.032,-0.351711 -0.032,-0.735397 -0.032,-1.087109 -0.0639,-0.447633 0,-0.863292 -0.0639,-1.310926 z m 7.64174,-1.694611 c -0.28776,0.127895 -0.51158,0.25579 -0.76737,0.351712 -0.38369,0.127895 -0.7354,0.191843 -1.08711,0.191843 -0.35171,0.03197 -0.70342,0.03197 -1.05513,0.03197 -0.35172,0 -0.67145,0 -1.02317,0 -0.22381,0 -0.44763,0 -0.67145,-0.03197 -0.31973,-0.06395 -0.67145,-0.09592 -0.99118,-0.09592 -0.44764,0 -0.8633,0.03197 -1.31093,0.03197 -0.41566,0 -0.76737,-0.319738 -1.18303,-0.319738 -0.032,0 -0.064,0 -0.0959,0 -0.25579,0.06395 -0.38369,0.287764 -0.57553,0.383686 -0.0959,0.06395 -0.15987,0.127895 -0.22382,0.223816 -0.032,0.223817 -0.032,0.447633 0,0.607502 0.0639,0.319738 0.0959,0.607503 0.0959,0.895267 0,0.127895 -0.032,0.287764 -0.032,0.415659 0,0.127895 0.032,0.287764 0.032,0.41566 0,0.639476 0.032,1.278952 0.032,1.918428 0,1.278952 -0.0639,2.557904 -0.15987,3.804882 -0.0959,0.767371 -0.0959,1.534742 -0.19184,2.27014 0,0.319738 -0.032,0.575528 -0.0959,0.831319 -0.032,0.735397 -0.032,1.470794 -0.1279,2.238166 v 0.92724 c 0,0.287764 0.032,0.575528 0.1279,0.831319 0.0959,0.25579 0.31973,0.383685 0.51158,0.51158 0.12789,0.09592 0.25579,0.06395 0.38368,0.06395 0.22382,-0.06395 0.51158,0 0.7354,-0.09592 0.57553,-0.127896 1.215,-0.255791 1.85448,-0.41566 0.86329,-0.25579 1.69461,-0.351712 2.5579,-0.543554 0.51158,-0.127896 0.95922,-0.223817 1.43883,-0.255791 0.28776,-0.03197 0.51158,-0.09592 0.73539,-0.127895 0.25579,-0.06395 0.47961,-0.06395 0.70343,-0.06395 0.4796,-0.03197 0.92724,-0.03197 1.37487,-0.03197 0.22382,0 0.44763,0.09592 0.67145,0.127895 0.12789,-0.03197 0.31974,-0.03197 0.44763,-0.159869 0.0959,-0.159869 0.1279,-0.287764 0.19185,-0.479607 0.032,-0.287764 -0.0639,-0.607502 -0.0959,-0.92724 -0.0639,-0.287765 -0.0959,-0.639476 -0.0639,-0.959214 0.032,-0.09592 0.032,-0.223817 0.032,-0.319738 0,-0.223817 -0.032,-0.479607 -0.032,-0.703424 0,-0.351712 0.032,-0.67145 0.032,-1.023162 0,-0.159869 0,-0.351711 -0.032,-0.51158 0,-0.543555 -0.0639,-1.119083 -0.0639,-1.726586 -0.032,-0.127895 -0.0639,-0.25579 -0.0639,-0.415659 0,-0.159869 0.032,-0.319738 0.032,-0.479607 0,-0.09592 0,-0.191843 -0.032,-0.255791 0,-0.319738 0.032,-0.607502 0.032,-0.92724 0,-0.223816 0,-0.447633 -0.0639,-0.67145 0,-0.223816 0.032,-0.479607 0.032,-0.703423 0,-0.159869 -0.0959,-0.319738 -0.032,-0.447633 0,-0.255791 0.032,-0.511581 0,-0.735398 V 48.91798 c -0.032,-0.223816 -0.032,-0.447633 -0.032,-0.67145 0,-0.319738 0.032,-0.639476 0.064,-0.959214 0,-0.127895 0.0639,-0.319738 0,-0.447633 -0.0959,-0.191843 -0.0959,-0.415659 -0.22382,-0.607502 -0.12789,-0.06395 -0.31973,-0.159869 -0.4796,-0.159869 h -0.99119 c -0.0959,0 -0.22382,-0.06395 -0.31974,0 z m -9.17648,-6.106996 c -0.15987,0.06395 -0.35171,0.09592 -0.44763,0.287764 -0.064,0.223817 0,0.479607 0.0959,0.703424 0.064,0.287764 0.31974,0.415659 0.51158,0.639476 0.22382,0.223816 0.44763,0.447633 0.67145,0.67145 0.31974,0.383685 0.67145,0.639476 1.02316,0.959214 0.15987,0.127895 0.38369,0.191842 0.54356,0.319738 0.19184,0.127895 0.41566,0.223816 0.67145,0.223816 0.19184,-0.06395 0.28776,-0.223816 0.38368,-0.415659 0,-0.191843 -0.064,-0.41566 -0.19184,-0.543555 -0.22382,-0.223816 -0.44763,-0.415659 -0.67145,-0.575528 -0.28777,-0.223817 -0.51158,-0.511581 -0.76737,-0.767371 -0.35171,-0.41566 -0.67145,-0.863293 -1.08711,-1.215005 -0.1279,-0.09592 -0.31974,-0.127895 -0.47961,-0.223816 -0.0959,0 -0.19184,-0.06395 -0.25579,-0.06395 z m 5.46752,-0.575528 c -0.19184,0 -0.35171,0.127895 -0.44763,0.25579 -0.032,0.25579 -0.0959,0.511581 0.032,0.735397 0.28777,0.639476 0.41566,1.3429 0.6075,2.01435 0.0959,0.287764 0.22382,0.543554 0.47961,0.703423 0.0959,0.03197 0.28776,0.06395 0.31974,0 0.12789,-0.191842 0.31974,-0.383685 0.31974,-0.543554 0.032,-0.287764 0.0959,-0.511581 0,-0.735398 -0.032,-0.319738 -0.032,-0.639476 -0.1279,-0.92724 -0.0959,-0.25579 -0.12789,-0.479607 -0.19184,-0.735397 -0.032,-0.127895 -0.0959,-0.255791 -0.19184,-0.351712 -0.1279,-0.191843 -0.35172,-0.223817 -0.51158,-0.319738 -0.0959,-0.06395 -0.19185,-0.127895 -0.28777,-0.09592 z m 5.81923,-0.895267 c -0.19184,0.03197 -0.31974,0.159869 -0.44763,0.351712 -0.28776,0.351712 -0.51158,0.767371 -0.79935,1.119083 -0.4796,0.607502 -0.83131,1.183031 -1.18303,1.758559 -0.12789,0.287764 -0.22381,0.575528 -0.22381,0.831319 0,0.09592 0,0.223816 0.032,0.319738 0.0639,0.223816 0.19184,0.447633 0.31974,0.607502 0.0959,0.159869 0.28776,0.191843 0.44763,0.191843 0.28777,-0.191843 0.31974,-0.511581 0.41566,-0.799345 0.22382,-0.479607 0.44763,-0.92724 0.76737,-1.374874 0.22382,-0.447633 0.63948,-0.799345 0.89527,-1.246978 0.12789,-0.223816 0.31974,-0.415659 0.44763,-0.607502 0.0959,-0.127895 0.19185,-0.287764 0.1279,-0.447633 0,-0.159869 0,-0.447633 -0.22382,-0.543555 -0.15987,-0.03197 -0.35171,-0.159869 -0.57553,-0.159869 z"
       id="text16-8-7-8-4-2-6-72-9-4"
       style="font-size:31.9738px;line-height:15.2688px;font-family:nasin-sitelen-pu;-inkscape-font-specification:nasin-sitelen-pu;text-align:center;letter-spacing:0px;text-anchor:middle;stroke-width:0.697006;stroke-linecap:square"
       aria-label="sona" />
    <path
       id="rect4-6-0-0-9-7-8-5-0-3"
       style="fill:#deddda;stroke-width:0.705556;stroke-linecap:square;paint-order:stroke markers fill"
       d="m 297.92349,71.683365 h 21.16662 v 21.166603 h -21.16662 z" />
    <path
       d="m 308.36167,79.357054 c 0.1279,-0.06395 0.25579,0.127896 0.38369,0.159869 0.44763,0.383686 1.05513,0.383686 1.59869,0.383686 0.54355,0 0.99118,0.223817 1.47079,0.25579 0.15987,0 0.28776,0.09592 0.44763,0.127896 0.38369,0.191842 0.83132,0.09592 1.18303,0.383685 0.19185,0.223817 0.44764,0.351712 0.63948,0.575529 0.22382,0.25579 0.44763,0.51158 0.57553,0.799345 0.28776,0.607502 0.22382,1.215004 0.31974,1.822506 0.032,0.223817 0.0639,0.447633 0.0639,0.703424 0,0.319738 -0.032,0.639476 -0.0639,0.959214 -0.032,0.415659 -0.19185,0.799345 -0.31974,1.183031 -0.19184,0.479607 -0.41566,0.991187 -0.70343,1.438821 -0.51158,0.799345 -1.15105,1.534742 -1.75855,2.238166 -0.22382,0.287764 -0.51158,0.447633 -0.76738,0.671449 -0.4796,0.41566 -0.95921,0.639476 -1.47079,0.927241 -0.51158,0.25579 -1.11908,0.383685 -1.66264,0.543554 -0.4796,0.159869 -0.99119,0.159869 -1.47079,0.223817 -0.28777,0.03197 -0.51158,-0.06395 -0.7354,-0.09592 -0.35171,-0.09592 -0.67145,-0.127895 -0.99119,-0.319738 -0.54355,-0.223816 -0.99119,-0.575528 -1.43882,-0.959214 -0.67145,-0.671449 -1.215,-1.470794 -1.56672,-2.366061 -0.0959,-0.287764 -0.15986,-0.607502 -0.22381,-0.92724 -0.15987,-0.447633 -0.22382,-0.92724 -0.22382,-1.374873 0,-0.319738 0.032,-0.639476 0.032,-0.991188 0,-0.511581 0.31973,-0.927241 0.44763,-1.374874 0.28776,-0.607502 0.7354,-1.151057 1.11908,-1.694611 0.41566,-0.511581 0.86329,-0.959214 1.31093,-1.406847 0.31974,-0.255791 0.73539,-0.447634 1.05513,-0.735398 0.47961,-0.25579 0.92724,-0.575528 1.43882,-0.831319 0.1279,-0.09592 0.31974,-0.09592 0.47961,-0.159869 0.28777,-0.03197 0.54356,-0.159869 0.83132,-0.159869 z m -0.41566,-1.502768 c -0.22382,0.06395 -0.44763,0.09592 -0.67145,0.127895 -0.41566,0.09592 -0.76737,0.287764 -1.11908,0.415659 -0.54356,0.223817 -0.95922,0.575529 -1.4708,0.831319 -0.76737,0.447633 -1.43882,1.023162 -2.01435,1.662638 -0.22381,0.159869 -0.44763,0.383685 -0.67145,0.67145 -0.35171,0.479607 -0.73539,1.023161 -1.08711,1.534742 -0.19184,0.351712 -0.31973,0.703424 -0.51158,1.023162 -0.28776,0.671449 -0.38368,1.374873 -0.38368,2.046323 0,0.319738 0,0.639476 0.032,0.92724 0.0959,0.831319 0.35171,1.630664 0.63948,2.398035 0.31974,0.735398 0.76737,1.406847 1.215,2.046323 0.51158,0.607503 1.08711,1.215005 1.79053,1.694612 0.28777,0.191843 0.51159,0.415659 0.83132,0.511581 0.44764,0.127895 0.89527,0.319738 1.3429,0.383685 l 1.08711,0.127895 c 0.0959,0 0.19185,-0.03197 0.25579,-0.03197 0.60751,-0.09592 1.18303,-0.09592 1.72659,-0.319738 0.35171,-0.09592 0.7354,-0.159869 1.02316,-0.255791 0.51158,-0.223816 0.99119,-0.447633 1.47079,-0.67145 0.28777,-0.159869 0.57553,-0.287764 0.83132,-0.51158 0.7354,-0.543555 1.50277,-1.119083 1.98238,-1.886455 0.6075,-0.767371 1.18303,-1.534742 1.59869,-2.430008 0.0959,-0.287765 0.22382,-0.511581 0.35171,-0.767372 0.28777,-0.735397 0.35171,-1.534742 0.44763,-2.302113 0.064,-0.287765 -0.032,-0.575529 -0.032,-0.863293 0,-0.191843 0,-0.415659 -0.0639,-0.575528 -0.0639,-0.511581 -0.032,-1.055136 -0.22381,-1.534743 -0.0959,-0.447633 -0.31974,-0.895266 -0.67145,-1.278952 -0.31974,-0.351712 -0.63948,-0.703423 -0.92724,-1.087109 -0.31974,-0.351712 -0.76738,-0.575528 -1.18303,-0.831319 -0.35172,-0.191843 -0.76738,-0.191843 -1.18304,-0.319738 -0.25579,-0.06395 -0.54355,-0.191843 -0.76737,-0.223816 -0.57552,-0.09592 -1.15105,-0.223817 -1.69461,-0.383686 -0.38368,-0.06395 -0.70342,-0.06395 -1.05513,-0.127895 -0.31974,-0.03197 -0.57553,-0.09592 -0.89527,0 z m -6.81042,-5.819232 c -0.25579,0.159869 -0.35171,0.447633 -0.31974,0.735397 0,0.255791 0.19185,0.447634 0.28777,0.67145 0.15987,0.319738 0.4796,0.511581 0.70342,0.767371 0.22382,0.255791 0.51158,0.511581 0.7354,0.767372 0.25579,0.351711 0.67145,0.575528 1.08711,0.767371 0.22381,0.09592 0.44763,0.351712 0.70342,0.191843 0.0959,-0.191843 0.22382,-0.383686 0.19184,-0.607503 -0.12789,-0.25579 -0.31973,-0.479607 -0.51158,-0.767371 -0.12789,-0.319738 -0.44763,-0.479607 -0.6075,-0.767371 -0.28776,-0.447633 -0.6075,-0.831319 -0.95921,-1.215004 -0.1279,-0.159869 -0.22382,-0.351712 -0.41566,-0.479607 -0.25579,-0.159869 -0.6075,-0.159869 -0.89527,-0.06395 z m 14.73992,-1.3429 c -0.22381,0.03197 -0.35171,0.223817 -0.44763,0.41566 -0.44763,0.575528 -0.86329,1.151057 -1.215,1.790533 -0.31974,0.543554 -0.67145,1.055135 -0.89527,1.630663 -0.0959,0.223817 -0.22382,0.479607 -0.1279,0.703424 0.064,0.319738 0.28777,0.639476 0.67145,0.703424 0.15987,0.06395 0.35172,-0.09592 0.47961,-0.191843 0.38369,-0.319738 0.63948,-0.735398 0.89527,-1.183031 0.19184,-0.319738 0.41566,-0.575528 0.6075,-0.92724 0.31974,-0.415659 0.47961,-0.92724 0.92724,-1.183031 0.19184,-0.127895 0.22382,-0.351711 0.31974,-0.575528 0,-0.383686 -0.22382,-0.639476 -0.38369,-0.92724 -0.19184,-0.255791 -0.54355,-0.287764 -0.83132,-0.255791 z m -7.38594,-0.351711 c -0.19185,0 -0.31974,0.127895 -0.44764,0.223816 -0.12789,0.159869 -0.31974,0.351712 -0.28776,0.575529 0.15987,0.639476 0.22381,1.278952 0.22381,1.886454 0,0.415659 0.0959,0.831319 0.19185,1.215004 0.032,0.223817 0.12789,0.479607 0.31974,0.639476 0.19184,0.223817 0.44763,0.223817 0.67144,0.319738 0.31974,0.127895 0.51159,-0.223816 0.54356,-0.479607 0,-1.055135 -0.0959,-2.046323 -0.0959,-3.069485 0,-0.223816 -0.032,-0.415659 -0.1279,-0.639476 -0.0959,-0.191842 -0.19184,-0.351711 -0.35171,-0.51158 -0.22382,-0.06395 -0.41566,-0.223817 -0.63947,-0.159869 z"
       id="text16-8-7-8-4-2-6-72-9-4-1"
       style="font-size:31.9738px;line-height:15.2688px;font-family:nasin-sitelen-pu;-inkscape-font-specification:nasin-sitelen-pu;text-align:center;letter-spacing:0px;text-anchor:middle;stroke-width:0.697006;stroke-linecap:square"
       aria-label="toki" />
    <path
       id="path529-0-5-6-5-0-7"
       style="font-variation-settings:'opsz' 12, 'wght' 700;fill:#ff7800;stroke:none;stroke-width:1.41115;stroke-linecap:square;stroke-dasharray:none;paint-order:stroke markers fill"
       d="m 309.38875,17.88511 a 1.7639406,1.7639403 0 0 0 -1.7642,1.76371 1.7639406,1.7639403 0 0 0 1.7642,1.76424 1.7639406,1.7639403 0 0 0 1.7637,-1.76424 1.7639406,1.7639403 0 0 0 -1.7637,-1.76371 z m 0,0.8816 a 0.88200355,0.88200343 0 0 1 0.8816,0.88211 0.88200355,0.88200343 0 0 1 -0.8816,0.88212 0.88200355,0.88200343 0 0 1 -0.8821,-0.88212 0.88200355,0.88200343 0 0 1 0.8821,-0.88211 z" />
  </g>
</svg>
