<?xml version="1.0" encoding="UTF-8" standalone="no"?>
<!-- Created with Inkscape (http://www.inkscape.org/) -->

<svg
   width="699.99976"
   height="99.999985"
   viewBox="0 0 185.20827 26.458329"
   version="1.1"
   id="svg1"
   inkscape:version="1.4.4 (dcaf3e7d9e, 2026-05-05)"
   sodipodi:docname="anatomy1.svg"
   xmlns:inkscape="http://www.inkscape.org/namespaces/inkscape"
   xmlns:sodipodi="http://sodipodi.sourceforge.net/DTD/sodipodi-0.dtd"
   xmlns="http://www.w3.org/2000/svg"
   xmlns:svg="http://www.w3.org/2000/svg">
  <sodipodi:namedview
     id="namedview1"
     pagecolor="#000000"
     bordercolor="#ffffff"
     borderopacity="1"
     inkscape:showpageshadow="2"
     inkscape:pageopacity="0.0"
     inkscape:pagecheckerboard="0"
     inkscape:deskcolor="#0d0d0d"
     inkscape:document-units="mm"
     showgrid="true"
     inkscape:zoom="1"
     inkscape:cx="344.5"
     inkscape:cy="124"
     inkscape:window-width="1920"
     inkscape:window-height="1080"
     inkscape:window-x="0"
     inkscape:window-y="0"
     inkscape:window-maximized="1"
     inkscape:current-layer="layer1">
    <inkscape:grid
       id="grid1"
       units="px"
       originx="0.33072901"
       originy="0.330729"
       spacingx="7.9375"
       spacingy="7.9375"
       empcolor="#ffffff"
       empopacity="0.42352941"
       color="#ffffff"
       opacity="0.09019608"
       empspacing="4"
       enabled="true"
       visible="true" />
    <inkscape:grid
       id="grid2"
       units="px"
       originx="0.33072901"
       originy="0.330729"
       spacingx="3.96875"
       spacingy="3.96875"
       empcolor="#ffffff"
       empopacity="0"
       color="#ffffff"
       opacity="0.09803922"
       empspacing="8"
       enabled="true"
       visible="true" />
  </sodipodi:namedview>
  <defs
     id="defs1" />
  <g
     inkscape:label="Layer 1"
     inkscape:groupmode="layer"
     id="layer1"
     transform="translate(0.33072901,0.33072901)">
    <path
       id="rect4-6-0-8-0-3"
       style="fill:#deddda;stroke-width:0.564443;stroke-linecap:square;paint-order:stroke markers fill"
       d="M 2.3150635,2.3151779 H 23.481735 V 23.481777 H 2.3150635 Z" />
    <path
       id="rect4-6-0-8-0-3-8"
       style="fill:#deddda;stroke-width:0.564443;stroke-linecap:square;paint-order:stroke markers fill"
       d="M 34.065063,2.3151779 H 55.231735 V 23.481777 H 34.065063 Z" />
    <path
       id="rect4-6-0-8-0-3-6"
       style="fill:#deddda;stroke-width:0.564443;stroke-linecap:square;paint-order:stroke markers fill"
       d="M 65.815063,2.3152542 H 86.981735 V 23.481853 H 65.815063 Z" />
    <path
       id="rect4-6-0-8-0-3-8-0"
       style="fill:#deddda;stroke-width:0.564443;stroke-linecap:square;paint-order:stroke markers fill"
       d="M 97.565063,2.3152542 H 118.73174 V 23.481853 H 97.565063 Z" />
    <path
       id="rect4-6-0-8-0-3-1"
       style="fill:#deddda;stroke-width:0.564443;stroke-linecap:square;paint-order:stroke markers fill"
       d="m 129.31506,2.3151779 h 21.16668 V 23.481777 h -21.16668 z" />
    <path
       id="rect4-6-0-8-0-3-8-3"
       style="fill:#deddda;stroke-width:0.564443;stroke-linecap:square;paint-order:stroke markers fill"
       d="m 161.06506,2.3151779 h 21.16668 V 23.481777 h -21.16668 z" />
    <path
       d="m 43.070016,8.6284432 0.07341,-0.1957616 c 0.171292,-0.5628146 0.391523,-0.9543378 0.636225,-1.22351 0.244702,-0.2447019 0.513875,-0.3670529 0.783047,-0.3670529 0.709636,0 1.22351,0.5872847 1.590563,1.7618543 z m -0.562815,4.2333448 c 0.02447,-0.905398 0.09788,-1.688444 0.195762,-2.37361 h 3.841821 c 0.07341,0.611755 0.146821,1.345861 0.171291,2.177848 z m 0.146821,4.062053 c -0.07341,-0.660696 -0.122351,-1.370331 -0.146821,-2.177848 l 4.233345,-0.195761 c -0.02447,0.880927 -0.04894,1.663973 -0.09788,2.349139 z m 2.104437,4.184404 c -0.807516,0 -1.394801,-0.783046 -1.810794,-2.324669 l 3.450298,-0.02447 c -0.318113,1.566093 -0.856457,2.349139 -1.639504,2.349139 z M 48.649221,5.8143703 c 0.391523,0 0.734106,-0.1468212 1.003278,-0.4404636 0.269173,-0.2691722 0.415994,-0.611755 0.415994,-1.0277484 0,-0.4159934 -0.146821,-0.7585762 -0.415994,-1.0522186 -0.269172,-0.2691722 -0.611755,-0.4159934 -1.003278,-0.4159934 -0.415993,0 -0.758576,0.1468212 -1.027748,0.4159934 -0.269172,0.2936424 -0.415994,0.6362252 -0.415994,1.0522186 0,0.4159934 0.146822,0.7585762 0.415994,1.0277484 0.269172,0.2936424 0.611755,0.4404636 1.027748,0.4404636 z M 44.83187,22.96798 c 1.810795,0 2.960894,-1.394801 3.425828,-4.208874 l 2.324669,-0.02447 c 0.562814,-0.04894 0.880927,-0.367053 0.929867,-0.929868 -0.04894,-0.562815 -0.367053,-0.880927 -0.929867,-0.929868 l -2.104437,0.02447 c 0.07341,-0.758577 0.09788,-1.566093 0.122351,-2.42255 l 2.079967,-0.09788 c 0.587284,-0.122351 0.880927,-0.440463 0.880927,-0.929867 0,-0.269173 -0.07341,-0.489404 -0.244702,-0.660696 -0.171292,-0.171291 -0.415994,-0.269172 -0.685166,-0.293642 l -2.055496,0.09788 c -0.02447,-0.758577 -0.09788,-1.468212 -0.171292,-2.128908 h 1.884206 c 0.611754,-0.122351 0.905397,-0.415993 0.905397,-0.9053972 0,-0.2691722 -0.07341,-0.489404 -0.244702,-0.6851656 C 50.778128,8.6773836 50.557897,8.5795028 50.264254,8.5795028 l -2.226788,0.02447 C 47.425711,6.1814233 46.275612,4.9823835 44.636108,4.9823835 c -0.709635,0 -1.29692,0.1957616 -1.786324,0.5628146 -0.513874,0.367053 -0.929868,0.9298676 -1.24798,1.6884437 -0.171292,0.4159934 -0.342583,0.8809272 -0.464934,1.3948014 l -2.349139,0.02447 c -0.269172,0 -0.464934,0.097881 -0.636225,0.2691722 -0.171292,0.1712914 -0.269173,0.3915232 -0.269173,0.6606954 0,0.2691722 0.09788,0.4894042 0.269173,0.6606952 0.171291,0.171292 0.391523,0.269173 0.660695,0.269173 h 2.006556 c -0.07341,0.734106 -0.146821,1.541622 -0.171291,2.44702 l -2.128907,0.09788 c -0.611755,0.122351 -0.905398,0.415994 -0.905398,0.905398 0,0.269172 0.09788,0.489404 0.293643,0.660695 0.171291,0.195762 0.391523,0.293643 0.636225,0.293643 l 2.128907,-0.09788 c 0.02447,0.734106 0.04894,1.443741 0.09788,2.128907 h -1.835265 c -0.562815,0.04894 -0.880927,0.367053 -0.929868,0.929868 0.04894,0.562814 0.367053,0.880927 0.929868,0.929867 l 2.104437,-0.02447 0.146821,0.587285 c 0.195762,0.758576 0.464934,1.394801 0.783047,1.933146 0.318112,0.538344 0.709635,0.954337 1.174569,1.22351 0.464934,0.293642 1.027749,0.440463 1.688444,0.440463 z M 40.720876,5.9856617 c 0.415994,0 0.758577,-0.1468212 1.027749,-0.4404636 0.269172,-0.2936424 0.415993,-0.6362252 0.415993,-1.0522186 0,-0.4159934 -0.146821,-0.7585762 -0.415993,-1.0522186 -0.269172,-0.2691722 -0.611755,-0.4159934 -1.027749,-0.4159934 -0.391523,0 -0.734106,0.1468212 -1.003278,0.4159934 -0.269172,0.2936424 -0.415993,0.6362252 -0.415993,1.0522186 0,0.4159934 0.146821,0.7585762 0.415993,1.0522186 0.269172,0.2936424 0.611755,0.4404636 1.003278,0.4404636 z"
       id="text16-8-7-8-8-2"
       style="font-size:24.4702px;line-height:11.6855px;font-family:'linja lipamanka';-inkscape-font-specification:'linja lipamanka';text-align:center;letter-spacing:0px;text-anchor:middle;stroke-width:0.545325;stroke-linecap:square"
       aria-label="akesi" />
    <path
       d="m 108.5521,22.135978 h -0.46493 c -1.76186,0 -3.27901,-0.391523 -4.55146,-1.174569 -1.29692,-0.783047 -2.27573,-1.835265 -2.96089,-3.156656 -0.709639,-1.321391 -1.052222,-2.789603 -1.052222,-4.429106 0,-1.639504 0.342583,-3.205596 1.052222,-4.6982786 0.70963,-1.4926822 1.71291,-2.691722 3.0343,-3.6460598 1.29692,-0.9298676 2.86301,-1.3948014 4.69828,-1.3948014 1.59056,0.02447 3.05877,0.3915232 4.40464,1.1500994 1.34586,0.7585762 2.42255,1.8597352 3.25453,3.2545366 0.83199,1.3948013 1.24798,3.0832448 1.24798,5.0163908 0,1.933146 -0.39152,3.548179 -1.17457,4.86957 -0.78304,1.345861 -1.81079,2.349139 -3.10771,3.058775 -1.29692,0.709636 -2.76514,1.076689 -4.38017,1.150099 z m 0.0734,1.859735 c 2.0555,-0.09788 3.86629,-0.611755 5.43239,-1.517152 1.56609,-0.905397 2.7896,-2.177848 3.695,-3.792881 0.88092,-1.615033 1.32139,-3.499239 1.32139,-5.652616 0,-2.226788 -0.48941,-4.1844042 -1.49268,-5.872848 -1.00328,-1.6884438 -2.32467,-3.0098346 -3.96418,-3.9641723 -1.6395,-0.9543378 -3.42582,-1.4192716 -5.35897,-1.4192716 -1.6395,0 -3.13219,0.3181126 -4.42911,0.978808 -1.29692,0.6606954 -2.42255,1.5660927 -3.32794,2.6672517 -0.929871,1.101159 -1.639507,2.3491392 -2.104441,3.7194704 -0.489404,1.3948018 -0.734106,2.7896028 -0.734106,4.2333448 0,1.933145 0.440464,3.695 1.321391,5.285563 0.856457,1.615033 2.079966,2.911954 3.646056,3.866291 1.5661,0.978808 3.37689,1.468212 5.45686,1.468212 z"
       id="text16-8-7-8-8-2-1"
       style="font-size:24.4702px;line-height:11.6855px;font-family:'linja lipamanka';-inkscape-font-specification:'linja lipamanka';text-align:center;letter-spacing:0px;text-anchor:middle;stroke-width:0.545325;stroke-linecap:square"
       aria-label="ijo" />
    <path
       d="m 13.0574,22.870115 c 0.562814,-0.04894 0.880927,-0.367053 0.929867,-0.929868 l -0.02447,-7.438941 1.468212,2.153378 c 0.220232,0.269172 0.464934,0.391523 0.758576,0.391523 0.611755,-0.07341 0.929868,-0.391523 0.929868,-0.929867 0,-0.171292 -0.04894,-0.342583 -0.146821,-0.513875 L 13.938327,11.2223 13.913857,3.8812398 c -0.04894,-0.5628146 -0.367053,-0.8809272 -0.929868,-0.9298676 -0.562814,0.04894 -0.880927,0.367053 -0.929867,0.9298676 l 0.02447,7.4389402 -3.2055963,4.551458 c -0.122351,0.171291 -0.1957616,0.367053 -0.1957616,0.562814 0,0.269172 0.097881,0.489404 0.3181126,0.660696 0.2202318,0.171291 0.4159934,0.269172 0.6362252,0.269172 0.2936423,0 0.5383441,-0.146821 0.7585761,-0.415994 l 1.712914,-2.398079 0.02447,7.39 c 0.04894,0.562815 0.367053,0.880927 0.929868,0.929868 z"
       id="text16-8-7-8-8"
       style="font-size:24.4702px;line-height:11.6855px;font-family:'linja lipamanka';-inkscape-font-specification:'linja lipamanka';text-align:center;letter-spacing:0px;text-anchor:middle;stroke-width:0.545325;stroke-linecap:square"
       aria-label="nasin" />
    <path
       d="m 72.250645,23.261623 c 0.611755,-0.122351 0.905397,-0.415994 0.905397,-0.905398 v -0.489404 c -0.02447,0 -0.04894,-0.758576 -0.04894,-2.275728 0,-3.156656 0.171291,-5.872848 0.538344,-8.124107 0.367053,-2.2267878 0.905397,-3.9397018 1.639503,-5.1387415 0.709636,-1.1990398 1.639504,-1.7863246 2.765133,-1.7863246 0.929868,0 1.737384,0.3915232 2.42255,1.1500994 0.660695,0.7830464 1.22351,1.8842053 1.639503,3.2790067 0.415993,1.419272 0.734106,3.107715 0.954338,5.065331 0.195761,1.982086 0.293642,4.135464 0.293642,6.509073 0,0.978808 0,1.468212 -0.02447,1.468212 v 0.342583 c 0,0.269172 0.09788,0.489404 0.293642,0.636225 0.195762,0.171292 0.415994,0.244702 0.660696,0.244702 0.489404,0 0.783046,-0.293642 0.905397,-0.905397 l 0.02447,-1.835265 c 0,-1.737384 -0.04894,-3.376888 -0.171291,-4.94298 C 84.926208,14.011887 84.754917,12.568145 84.534685,11.246755 84.314453,9.9253638 83.99634,8.726324 83.629287,7.6741054 83.262234,6.6218869 82.797301,5.7409597 82.283426,4.9823835 81.745082,4.2482775 81.133327,3.6854629 80.423691,3.2694695 79.714056,2.8779463 78.931009,2.6821847 78.050082,2.6821847 c -1.24798,0 -2.275729,0.367053 -3.083245,1.1256292 -0.831987,0.7585762 -1.492682,1.7373842 -1.982086,2.9608942 -0.489404,1.2479801 -0.856457,2.5938411 -1.101159,4.0375829 -0.269173,1.468212 -0.415994,2.936424 -0.489404,4.429106 -0.07341,1.492682 -0.122351,2.838543 -0.122351,4.037583 l -2.128908,-3.083245 c -0.220231,-0.269172 -0.489404,-0.415993 -0.783046,-0.415993 -0.611755,0.12235 -0.929868,0.440463 -0.929868,0.954337 0,0.171292 0.04894,0.342583 0.171292,0.513874 l 3.866291,5.603676 c 0.220232,0.269172 0.489404,0.415994 0.783047,0.415994 z"
       id="text16-8-7-8-8-20"
       style="font-size:24.4702px;line-height:11.6855px;font-family:'linja lipamanka';-inkscape-font-specification:'linja lipamanka';text-align:center;letter-spacing:0px;text-anchor:middle;stroke-width:0.545325;stroke-linecap:square"
       aria-label="luka" />
    <path
       d="m 146.76223,16.923856 c 0.56282,-0.04894 0.88093,-0.367053 0.95434,-0.929867 V 8.2858757 c 0,-0.244702 -0.0979,-0.4649338 -0.26917,-0.6362252 -0.17129,-0.1712914 -0.39152,-0.2691722 -0.6607,-0.2936424 -0.56281,0.04894 -0.88092,0.367053 -0.92986,0.9298676 v 6.7537753 l -12.06381,-0.146821 -0.0734,-6.9740073 c -0.0734,-0.5628146 -0.36705,-0.8809272 -0.92987,-0.9298676 -0.56281,0.073411 -0.88093,0.3915232 -0.92987,0.9543378 l 0.0979,7.8794041 c 0.0489,0.562815 0.34259,0.880927 0.9054,0.929868 z m -6.90059,3.817351 c 0.41599,0 0.75857,-0.146821 1.05222,-0.440463 0.26917,-0.269173 0.41599,-0.611755 0.41599,-1.027749 0,-0.415993 -0.14682,-0.758576 -0.41599,-1.052218 -0.29365,-0.269172 -0.63623,-0.415994 -1.05222,-0.415994 -0.39152,0 -0.73411,0.146822 -1.02775,0.415994 -0.29364,0.293642 -0.44046,0.636225 -0.44046,1.052218 0,0.415994 0.14682,0.758576 0.44046,1.027749 0.29364,0.293642 0.63623,0.440463 1.02775,0.440463 z"
       id="text16-8-7-8-8-20-7"
       style="font-size:24.4702px;line-height:11.6855px;font-family:'linja lipamanka';-inkscape-font-specification:'linja lipamanka';text-align:center;letter-spacing:0px;text-anchor:middle;stroke-width:0.545325;stroke-linecap:square"
       aria-label="anpa" />
    <path
       d="m 167.25594,16.14081 c 0.9054,0 1.8108,-0.220232 2.69172,-0.660696 0.85646,-0.415993 1.66398,-1.076688 2.39808,-1.933145 0.56282,-0.685166 1.17457,-1.17457 1.8108,-1.468212 0.63622,-0.293643 1.29692,-0.440464 1.95761,-0.440464 1.00328,0 2.00656,0.269172 2.9609,0.831987 0.95434,0.562814 1.73738,1.370331 2.39808,2.373609 0.22023,0.293643 0.46493,0.440464 0.78305,0.440464 0.61175,-0.09788 0.92986,-0.415994 0.92986,-0.929868 0,-0.171291 -0.0489,-0.342583 -0.14682,-0.513874 -0.68516,-1.076689 -1.61503,-2.031027 -2.81407,-2.838543 -1.19904,-0.807517 -2.44702,-1.2235101 -3.695,-1.2235101 h -0.31811 c -0.95434,0 -1.90868,0.1957616 -2.81408,0.6117551 -0.90539,0.415993 -1.73738,1.076689 -2.49596,1.957616 -0.56281,0.685165 -1.1501,1.174569 -1.73738,1.468212 -0.58729,0.318112 -1.17457,0.464934 -1.78633,0.464934 -0.88092,0 -1.78632,-0.293643 -2.69172,-0.880928 -0.9054,-0.587284 -1.76185,-1.468212 -2.56937,-2.618311 -0.19576,-0.269172 -0.44046,-0.415993 -0.73411,-0.415993 -0.63622,0.09788 -0.95433,0.415993 -0.95433,0.929867 0,0.171292 0.0489,0.342583 0.14682,0.513874 0.9054,1.345861 1.93314,2.39808 3.08324,3.156656 1.1501,0.783047 2.34914,1.17457 3.59712,1.17457 z"
       id="text16-8-7-8-8-2-1-6"
       style="font-size:24.4702px;line-height:11.6855px;font-family:'linja lipamanka';-inkscape-font-specification:'linja lipamanka';text-align:center;letter-spacing:0px;text-anchor:middle;stroke-width:0.545325;stroke-linecap:square"
       aria-label="linja" />
  </g>
</svg>
