<?xml version="1.0" encoding="UTF-8" standalone="no"?>
<!-- Created with Inkscape (http://www.inkscape.org/) -->

<svg
   width="699.99963"
   height="459.99994"
   viewBox="0 0 185.20824 121.70832"
   version="1.1"
   id="svg1"
   inkscape:version="1.4.4 (dcaf3e7d9e, 2026-05-05)"
   sodipodi:docname="heads1.svg"
   xmlns:inkscape="http://www.inkscape.org/namespaces/inkscape"
   xmlns:sodipodi="http://sodipodi.sourceforge.net/DTD/sodipodi-0.dtd"
   xmlns="http://www.w3.org/2000/svg"
   xmlns:svg="http://www.w3.org/2000/svg">
  <sodipodi:namedview
     id="namedview1"
     pagecolor="#000000"
     bordercolor="#ffffff"
     borderopacity="1"
     inkscape:showpageshadow="2"
     inkscape:pageopacity="0.0"
     inkscape:pagecheckerboard="0"
     inkscape:deskcolor="#0d0d0d"
     inkscape:document-units="mm"
     showgrid="true"
     inkscape:zoom="0.78214313"
     inkscape:cx="489.6802"
     inkscape:cy="130.41091"
     inkscape:window-width="1023"
     inkscape:window-height="1052"
     inkscape:window-x="0"
     inkscape:window-y="0"
     inkscape:window-maximized="0"
     inkscape:current-layer="layer1" />
  <defs
     id="defs1" />
  <g
     inkscape:label="Layer 1"
     inkscape:groupmode="layer"
     id="layer1"
     transform="translate(-90.754707,-19.248409)">
    <path
       d="m 106.62954,27.185914 c 0,1.455207 -1.19062,2.64583 -2.64583,2.64583 -1.45521,0 -2.64583,-1.190623 -2.64583,-2.64583 0,-1.455206 1.19062,-2.64583 2.64583,-2.64583 1.45521,0 2.64583,1.190624 2.64583,2.64583 z m -2.64583,14.552065 c 0,-0.132291 -0.0265,-0.238125 -0.0529,-0.370416 v -0.02646 l -0.0264,-0.02646 v -0.05292 c -0.0265,-0.05292 -0.0529,-0.15875 -0.0794,-0.291042 -0.0794,-0.238124 -0.15875,-0.608541 -0.29104,-1.058332 -0.55562,-2.143122 -1.32291,-5.344576 -1.74625,-7.911031 0.66146,0.317499 1.40229,0.476249 2.19604,0.476249 2.91041,0 5.29166,-2.381247 5.29166,-5.29166 0,-2.910413 -2.38125,-5.29166 -5.29166,-5.29166 -2.91041,0 -5.291659,2.381247 -5.291659,5.29166 0,2.989788 0.687916,6.773325 1.349369,9.710196 0.34396,1.481665 0.66146,2.778122 0.92605,3.704162 0.1852,0.634999 0.23812,0.952499 0.39687,1.40229 0,0.02646 0.0265,0.05292 0.0265,0.07938 v 0.02646 c 0.18521,0.555625 0.71437,0.952499 1.27,0.952499 0.79375,0 1.32291,-0.687916 1.32291,-1.322915 z"
       id="text16-8-7"
       style="font-size:26.4583px;line-height:12.6349px;font-family:nasin-nanpa;-inkscape-font-specification:nasin-nanpa;text-align:center;letter-spacing:0px;text-anchor:middle;fill:#000000;stroke-width:0.614201;stroke-linecap:square"
       aria-label="mi" />
    <path
       d="m 130.16887,27.179542 c 0.0508,5.869756 2.03282,11.714102 5.56483,16.414989 l 1.70249,-1.27051 c -2.36315,-3.150865 -3.96399,-6.860754 -4.70089,-10.723104 0.88936,0.584434 1.93118,0.863946 2.9984,0.863946 3.07464,0 5.56484,-2.464789 5.56484,-5.539423 0,-3.074634 -2.4902,-5.564834 -5.56484,-5.564834 -3.07463,0 -5.56483,2.4902 -5.56483,5.564834 z m 5.56483,-3.709889 c 1.90577,0 3.43038,1.550022 3.43038,3.455787 0,1.905765 -1.52461,3.430377 -3.43038,3.430377 -1.90576,0 -3.43037,-1.524612 -3.43037,-3.430377 0,-1.905765 1.52461,-3.455787 3.43037,-3.455787 z"
       id="text16-8-7-8"
       style="font-size:25.4102px;line-height:12.1344px;font-family:'linja laso';-inkscape-font-specification:'linja laso';text-align:center;letter-spacing:0px;text-anchor:middle;fill:#000000;stroke-width:0.566274;stroke-linecap:square"
       aria-label="mi" />
    <path
       d="m 168.62159,30.409867 c -0.51387,0 -1.02774,-0.122351 -1.54162,-0.342582 -0.51387,-0.22023 -0.9788,-0.562812 -1.34585,-1.076684 0.17129,-1.101154 0.36705,-1.957608 0.61175,-2.618301 0.19576,-0.464932 0.51387,-0.807513 0.97881,-1.052214 0.44046,-0.220231 0.95433,-0.342581 1.56608,-0.342581 0.85646,0 1.61503,0.220231 2.27572,0.660692 0.29364,0.220231 0.46493,0.415992 0.53834,0.611753 0.0734,0.220231 0.0979,0.464932 0.0979,0.734103 0,0.513872 -0.0734,1.052214 -0.22023,1.566086 -0.17129,0.538342 -0.46493,0.978804 -0.92986,1.321386 -0.46493,0.367051 -1.12562,0.538342 -2.03102,0.538342 z m -3.15664,12.773392 c 0.63622,-0.12235 0.95433,-0.440461 0.95433,-0.954334 l -0.0245,-0.244701 c -0.34258,-1.247975 -0.58728,-2.6183 -0.75857,-4.086506 -0.17129,-1.443736 -0.2447,-2.887472 -0.2447,-4.282268 0,-0.783043 0.0245,-1.566086 0.0734,-2.34913 0.53834,0.367052 1.07668,0.636223 1.61502,0.758574 0.53835,0.14682 1.07669,0.22023 1.61503,0.22023 0.95434,0 1.83526,-0.19576 2.59383,-0.587282 0.9054,-0.513872 1.54162,-1.223505 1.8842,-2.128899 0.34258,-0.905393 0.51387,-1.737377 0.51387,-2.49595 0,-1.247975 -0.46493,-2.202309 -1.37032,-2.887472 -0.92987,-0.685163 -2.05549,-1.027744 -3.40135,-1.027744 -0.88092,0 -1.7129,0.220231 -2.52042,0.636223 -0.80751,0.415991 -1.39479,1.076684 -1.76185,1.933138 -0.26917,0.611752 -0.46493,1.345855 -0.61175,2.153368 -0.17129,0.831984 -0.29364,1.737377 -0.36705,2.716182 -0.0734,0.978804 -0.12235,2.006548 -0.12235,3.058762 0,1.492676 0.0979,2.985352 0.26917,4.526969 0.17129,1.541616 0.41599,2.985352 0.78304,4.355678 0.19577,0.464931 0.48941,0.685162 0.88093,0.685162 z"
       id="text16-8-7-8-4"
       style="font-size:24.4701px;line-height:11.6855px;font-family:'linja lipamanka';-inkscape-font-specification:'linja lipamanka';text-align:center;letter-spacing:0px;text-anchor:middle;fill:#000000;stroke-width:0.545325;stroke-linecap:square"
       aria-label="mi" />
    <path
       style="font-size:31.5918px;line-height:15.0864px;font-family:'sitelen seli kiwen asuki';-inkscape-font-specification:'sitelen seli kiwen asuki';text-align:center;letter-spacing:0px;text-anchor:middle;fill:#000000;stroke-width:0.704036;stroke-linecap:square"
       d="m 193.83164,38.96969 q 0,0 -0.0632,-0.221143 -0.0316,-0.221142 -0.12637,-0.568652 -0.0632,-0.34751 -0.15796,-0.758203 -0.0632,-0.410694 -0.12637,-0.852979 -0.0316,-0.473877 -0.0316,-0.821387 0,-0.284326 0.12637,-0.979346 0.12637,-0.695019 0.12637,-1.042529 v -0.06318 q -0.0316,-0.06318 -0.0632,-0.18955 0,-0.157959 -0.0316,-0.34751 -0.0316,-0.189551 -0.0632,-0.473877 -0.0316,-0.284326 -0.0632,-0.600244 0,-0.34751 -0.0316,-0.789795 0,-0.442286 0,-0.947754 0,-0.157959 0.0316,-0.726612 0.0316,-0.600244 0.12637,-1.326855 0.12637,-0.758204 0.25274,-0.852979 0.15796,-0.09478 0.28432,-0.758203 0.15796,-0.663428 0.25274,-0.758204 0.0948,-0.09477 0.34751,-0.505468 0.28432,-0.410694 0.60024,-0.821387 0.34751,-0.442285 0.72661,-0.69502 0.34751,-0.221142 1.01094,-0.789795 0.28433,-0.252734 0.7582,-0.410693 0.50547,-0.189551 0.56866,-0.34751 0.0948,-0.221143 0.66342,-0.221143 0.44229,0 0.7898,-0.126367 0.34751,-0.157959 0.47388,-0.157959 0.3791,0 1.01093,0.221143 0.66343,0.221142 0.82139,0.379101 0.12637,0.189551 0.66343,0.379102 0.53706,0.189551 0.7582,0.442285 0.28433,0.34751 0.47388,0.34751 0.31592,0 1.32685,1.23208 1.01094,1.23208 1.07412,1.705957 0.12637,0.663428 0.12637,1.579591 0,1.927099 -0.47388,2.179834 -0.18955,0.09477 -0.18955,0.315918 0,0.442285 -1.29526,1.769141 -1.26367,1.295263 -1.67437,1.295263 -0.12636,0 -1.04252,0.442286 -0.88457,0.410693 -1.73755,0.410693 -1.48482,0 -2.36939,-0.157959 -0.85298,-0.189551 -1.20049,-0.34751 -0.31592,-0.189551 -0.47387,-0.189551 -0.22115,0 -0.28433,0.284327 -0.0632,0.284326 -0.0632,1.200488 0,1.263672 0.0632,2.243018 0.0632,0.947754 0.12637,1.453223 0.0948,0.505469 0.0948,0.663428 0,0.06318 -0.0948,0.505468 -0.0948,0.410694 -0.0632,0.726612 0.0316,0.157959 0.0316,0.568652 0,1.674366 -0.37911,2.148243 -0.25273,0.315918 -0.94775,0.315918 -1.26367,0 -1.26367,-1.010938 0,-0.221143 0.0948,-0.442285 0.12637,-0.252735 0.15796,-0.631836 0.0316,-0.34751 0.15796,-0.69502 0.12637,-0.379101 0.12637,-0.442285 0,-0.03159 -0.0316,-0.06318 -0.0316,-0.06318 -0.0316,-0.157959 0,-0.157959 0.0632,-0.726611 0.0632,-0.600244 0.0632,-0.789795 z m 9.60391,-13.142189 q -1.29526,-1.23208 -1.89551,-1.547998 -0.60024,-0.34751 -1.76914,-0.34751 -0.56865,0 -1.1373,0.252734 -0.53707,0.221143 -0.82139,0.473877 -0.28433,0.221143 -0.31592,0.315918 -0.0948,0.221143 -0.72661,0.726612 -0.60025,0.473877 -0.60025,0.663427 0,0.157959 -0.3791,0.726612 -0.34751,0.53706 -0.41069,0.947754 0,0.03159 -0.0948,0.157959 -0.0632,0.126367 -0.0948,0.189551 0,0.06318 0.0632,0.157959 0.0948,0.06318 0.0948,0.442285 0.0316,0.379102 0.18955,0.600244 0.18955,0.252735 0.18955,0.537061 0,0.284326 0.22114,0.284326 0.22114,0 0.28433,0.600244 0.0948,0.568653 0.66343,0.821387 1.16889,0.537061 2.21142,0.537061 1.48482,0 1.80074,-0.252735 0.22114,-0.221142 0.88457,-0.410693 0.94775,-0.284326 1.80073,-1.295264 0.88457,-1.042529 0.91616,-1.9271 0,-0.157959 0,-0.379101 0.0316,-0.221143 0.0316,-0.315918 0,-0.600245 -0.22114,-0.916163 -0.18955,-0.34751 -0.88457,-1.042529 z"
       id="text16-8-7-8-4-2"
       aria-label="mi" />
    <path
       d="m 238.31422,23.268736 -1.61881,-1.802064 -2.50456,-1.069021 -2.93217,0.06109 -2.77946,1.374455 -2.07695,2.718368 -1.61881,4.306628 -1.06902,4.520431 -0.61087,4.367715 -0.4276,4.092823 -0.0611,2.351846 0.85522,0.274891 1.64934,0.09163 0.30544,-3.665215 0.54978,-5.131301 0.73304,-3.756845 0.42761,-1.343912 1.16065,1.435542 1.77152,1.099565 2.93218,0.366521 2.47402,-0.397065 2.35184,-1.557716 1.28283,-2.046412 0.39706,-2.871085 -0.42761,-1.985325 z m -4.67315,-0.488696 1.58826,0.79413 1.03848,1.160652 0.58032,1.67989 v 1.802064 l -0.61087,1.374456 -1.28282,1.069021 -2.04642,0.458151 -2.38239,-0.366521 -1.46608,-1.191195 -0.73304,-1.832607 0.30543,-2.076955 1.22174,-1.679891 1.89369,-1.130108 z"
       id="text16-8-7-8-4-2-6"
       style="font-weight:500;font-size:31.2765px;line-height:14.9358px;font-family:Nishiki-teki-lili;-inkscape-font-specification:'Nishiki-teki-lili Medium';text-align:center;letter-spacing:0px;text-anchor:middle;fill:#000000;stroke-width:0.697006;stroke-linecap:square"
       aria-label="mi" />
    <path
       d="m 106.62966,69.519261 c 0,1.455206 -1.19062,2.64583 -2.64583,2.64583 -1.4552,0 -2.64583,-1.190624 -2.64583,-2.64583 0,-1.455207 1.19063,-2.64583 2.64583,-2.64583 1.45521,0 2.64583,1.190623 2.64583,2.64583 z m -3.96874,-15.87498 c -0.55563,0 -1.08479,0.396875 -1.27,0.952499 v 0.02646 c 0,0.02646 -0.0265,0.05292 -0.0265,0.07937 -0.0265,0.07937 -0.0529,0.15875 -0.0794,0.291041 -0.44979,1.508123 -0.76729,2.80458 -1.24354,4.815411 -0.661461,2.936871 -1.349377,6.720408 -1.349377,9.710196 0,2.910413 2.381247,5.29166 5.291657,5.29166 2.91042,0 5.29166,-2.381247 5.29166,-5.29166 0,-2.910413 -2.38124,-5.29166 -5.29166,-5.29166 -0.79375,0 -1.53458,0.15875 -2.19604,0.476249 0.42334,-2.566455 1.19063,-5.794367 1.74625,-7.911031 0.13229,-0.449791 0.21167,-0.820208 0.29104,-1.058332 0.0265,-0.132292 0.0529,-0.238125 0.0794,-0.291042 v -0.05292 l 0.0265,-0.02646 v -0.02646 c 0.0265,-0.132291 0.0529,-0.238125 0.0529,-0.370416 0,-0.634999 -0.52916,-1.322915 -1.32291,-1.322915 z"
       id="text16-8-7-3"
       style="font-size:26.4583px;line-height:12.6349px;font-family:nasin-nanpa;-inkscape-font-specification:nasin-nanpa;text-align:center;letter-spacing:0px;text-anchor:middle;fill:#000000;stroke-width:0.614201;stroke-linecap:square"
       aria-label="sina" />
    <path
       d="m 130.16899,69.525607 v 0.254102 c 0,3.074634 2.4902,5.564834 5.56484,5.564834 3.07463,0 5.56483,-2.4902 5.56483,-5.564834 0,-3.074634 -2.4902,-5.564834 -5.56483,-5.564834 -1.06723,0 -2.10905,0.304922 -2.99841,0.889357 0.7369,-3.862351 2.33774,-7.57224 4.70089,-10.723105 l -1.70248,-1.27051 c -3.53202,4.700887 -5.51402,10.545233 -5.56484,16.41499 z m 5.56484,3.709889 c -1.90577,0 -3.43038,-1.550022 -3.43038,-3.455787 0,-1.905765 1.52461,-3.430377 3.43038,-3.430377 1.90576,0 3.43037,1.524612 3.43037,3.430377 0,1.905765 -1.52461,3.455787 -3.43037,3.455787 z"
       id="text16-8-7-8-7"
       style="font-size:25.4102px;line-height:12.1344px;font-family:'linja laso';-inkscape-font-specification:'linja laso';text-align:center;letter-spacing:0px;text-anchor:middle;fill:#000000;stroke-width:0.566274;stroke-linecap:square"
       aria-label="sina" />
    <path
       d="m 168.10784,72.241575 c -0.53834,0 -1.07668,-0.244701 -1.6395,-0.709633 -0.56281,-0.464932 -1.00327,-1.247975 -1.37032,-2.34913 v -0.02447 c 0.0245,-0.269171 0.17129,-0.758573 0.4894,-1.443736 0.31811,-0.660692 0.88092,-1.076684 1.68844,-1.199035 0.75857,0 1.4682,0.269172 2.1289,0.783044 0.66069,0.513872 0.9788,1.150094 0.9788,1.908668 0,0.318111 -0.0489,0.660692 -0.17129,1.027744 -0.2447,0.734103 -0.56281,1.247975 -0.92986,1.541616 -0.36706,0.318111 -0.75858,0.464932 -1.17457,0.464932 z m 0,1.859728 c 1.1501,0 2.1289,-0.513873 2.93641,-1.517147 0.80752,-1.003274 1.19904,-2.104428 1.19904,-3.352403 0,-1.296916 -0.4894,-2.3736 -1.49268,-3.254524 -1.00327,-0.880923 -2.15337,-1.321385 -3.40134,-1.321385 -0.63622,0 -1.17457,0.12235 -1.6395,0.391521 -0.46493,0.269172 -0.83198,0.562813 -1.10115,0.905394 l -0.0245,-0.685163 c 0,-1.492676 0.22023,-3.083232 0.63622,-4.820609 0.41599,-1.712907 0.9788,-3.278994 1.66397,-4.69826 0.0734,-0.14682 0.0979,-0.293641 0.0979,-0.415991 0,-0.269172 -0.0979,-0.513873 -0.26917,-0.685163 -0.19577,-0.171291 -0.416,-0.244701 -0.68517,-0.244701 -0.34258,0 -0.61175,0.17129 -0.80751,0.513872 -0.83198,1.663967 -1.44374,3.425814 -1.85973,5.261071 -0.41599,1.859728 -0.63622,3.670516 -0.63622,5.432363 0,1.247975 0.12235,2.42254 0.36705,3.499224 0.2447,1.076685 0.66069,2.006548 1.22351,2.789592 1.15009,1.468206 2.42254,2.202309 3.79286,2.202309 z"
       id="text16-8-7-8-4-9"
       style="font-size:24.4701px;line-height:11.6855px;font-family:'linja lipamanka';-inkscape-font-specification:'linja lipamanka';text-align:center;letter-spacing:0px;text-anchor:middle;fill:#000000;stroke-width:0.545325;stroke-linecap:square"
       aria-label="sina" />
    <path
       style="font-size:31.5918px;line-height:15.0864px;font-family:'sitelen seli kiwen asuki';-inkscape-font-specification:'sitelen seli kiwen asuki';text-align:center;letter-spacing:0px;text-anchor:middle;fill:#000000;stroke-width:0.704036;stroke-linecap:square"
       d="m 195.1269,52.658548 q 0,0.126367 0.22114,0.157959 0.22114,0.03159 0.44228,0.379102 0.25274,0.34751 0.25274,1.200488 0,0.568653 -0.12637,1.105713 -0.12637,0.537061 -0.12637,2.179835 0,3.664648 0.22115,3.948975 0.18955,0.126367 0.0316,0.410693 -0.15796,0.252734 -0.0948,0.505469 0.0316,0.09477 0.0316,0.221142 0,0.03159 -0.12636,0.537061 -0.0948,0.505469 -0.0948,1.23208 0.0316,0.979346 0.25274,0.916163 0,-0.221143 0.69502,-0.568653 0.72661,-0.34751 1.5164,-0.663428 0.7898,-0.347509 0.91616,-0.442285 0.15796,-0.157959 0.94776,-0.157959 0.85298,0 1.48481,0.189551 0.66343,0.189551 1.01094,0.379102 0.34751,0.157959 0.44229,0.157959 0.15795,0 0.31591,0.252734 0.15796,0.252734 0.34751,0.315918 0.37911,0.157959 0.85298,0.505469 0.50547,0.315918 0.50547,0.410693 0,0.126367 0.15796,0.315918 0.18955,0.157959 0.3791,0.34751 0.18955,0.189551 0.34751,0.789795 0.18955,0.600244 0.18955,1.484815 0,1.76914 -0.72661,2.495752 -0.22114,0.221142 -0.72661,0.916162 -0.34751,0.537061 -0.66343,0.884571 -0.31592,0.347509 -1.26367,0.789795 -0.94775,0.442285 -2.21143,0.442285 -1.04253,0 -1.70595,-0.315918 -0.66343,-0.315918 -0.82139,-0.315918 -0.25274,0 -1.10571,-0.789795 -0.85298,-0.821387 -0.97935,-0.821387 -0.18955,0 -0.18955,-0.284326 0,-0.189551 -0.3791,-0.600245 -0.3791,-0.410693 -0.3791,-0.53706 0,-0.126367 -0.0632,-0.221143 -0.0632,-0.126367 -0.18955,-0.252734 -0.0948,-0.126367 -0.28432,-0.473877 -0.15796,-0.34751 -0.34751,-0.821387 -0.12637,-0.379102 -0.31592,-1.421631 -0.18955,-1.042529 -0.18955,-1.421631 l 0.0316,-0.06318 q 0,-0.09477 0,-0.221142 0.0316,-0.157959 0.0316,-0.34751 0.0316,-0.221143 0.0316,-0.568652 0.0316,-0.34751 0.0316,-0.758204 0,-0.947754 -0.0632,-0.979346 -0.0632,-0.06318 -0.0632,-0.09477 0,-0.03159 0.12636,-0.410693 0.12637,-0.379102 0.12637,-0.758204 0,-0.157959 -0.0948,-0.252734 -0.0632,-0.126367 0,-0.284326 0.18955,-0.505469 0.18955,-4.517628 0,-0.442285 0,-0.88457 0,-0.442285 -0.0316,-0.758203 0,-0.315918 -0.0316,-0.568653 0,-0.252734 0,-0.410693 v -0.126367 q 0,-1.200489 0.66343,-1.39004 0.60025,-0.18955 0.60025,0.03159 z m 8.71933,15.543166 q 0,-0.252734 -0.85298,-1.105713 -0.85297,-0.88457 -1.1373,-0.979346 -0.41069,-0.18955 -1.29526,-0.18955 -1.48482,0 -2.11666,0.53706 -0.31591,0.252735 -0.78979,0.568653 -0.3791,0.252734 -0.56865,0.695019 -0.18955,0.410694 -0.34751,0.568653 -0.22115,0.221142 -0.22115,0.505468 0,0.410694 0.50547,0.884571 0.53706,0.473877 0.69502,0.821387 0.25274,0.505468 0.44229,0.505468 0.22114,0 0.22114,0.189551 0,0.284326 0.66343,0.505469 0.69502,0.189551 1.61118,0.189551 1.51641,0 1.70596,-0.221143 0.0948,-0.157959 0.53706,-0.379101 0.31592,-0.157959 0.50547,-0.442286 0.18955,-0.284326 0.60024,-1.23208 0.22114,-0.505469 0.22114,-0.631836 0.0316,-0.126367 -0.12636,-0.34751 -0.25274,-0.315918 -0.25274,-0.442285 z"
       id="text16-8-7-8-4-2-2"
       aria-label="sina" />
    <path
       d="m 231.76265,66.044918 1.71043,0.79413 1.03848,1.160651 0.58032,1.649347 v 1.802064 l -0.61087,1.343912 -1.34391,1.069021 -2.1075,0.458152 -2.44347,-0.366522 -1.46609,-1.282825 -0.61087,-1.924238 0.33598,-2.076955 1.06902,-1.435542 1.95478,-1.130108 z m 4.8564,0.488695 -1.67989,-1.77152 -2.65728,-1.069021 -2.99326,0.06109 -1.34391,0.610869 0.61087,-1.740977 1.55772,-3.481955 1.52717,-2.871085 2.07696,-2.932172 -1.09957,-0.97739 -1.37445,-0.641413 -1.43555,2.168586 -1.8326,3.390323 -1.71044,4.092824 -1.58826,4.642605 -0.51924,3.329237 v 2.565651 l 0.73305,1.954781 1.34391,1.404999 1.83261,1.099565 3.0238,0.366521 2.53511,-0.397065 2.47402,-1.527173 1.34391,-2.046411 0.39706,-2.840542 -0.42761,-1.954781 z"
       id="text16-8-7-8-4-2-6-7"
       style="font-weight:500;font-size:31.2765px;line-height:14.9358px;font-family:Nishiki-teki-lili;-inkscape-font-specification:'Nishiki-teki-lili Medium';text-align:center;letter-spacing:0px;text-anchor:middle;fill:#000000;stroke-width:0.697006;stroke-linecap:square"
       aria-label="sina" />
    <path
       d="m 109.91037,93.331763 c 1.45521,0 2.64583,1.190624 2.64583,2.64583 0,1.455207 -1.19062,2.64583 -2.64583,2.64583 -1.45521,0 -2.64583,-1.190623 -2.64583,-2.64583 0,-1.455206 1.19062,-2.64583 2.64583,-2.64583 z m -17.197894,-0.92604 c 0,0.291041 0.105833,0.608541 0.291041,0.846665 1.984372,2.460622 4.868327,4.444995 7.884573,5.820826 3.01625,1.375836 6.24416,2.196036 8.94291,2.196036 h 0.0794 c 2.91041,0 5.29166,-2.381244 5.29166,-5.291657 0,-2.910413 -2.38125,-5.29166 -5.29166,-5.29166 -2.91041,0 -5.29166,2.381247 -5.29166,5.29166 0,0.634999 0.10583,1.269999 0.3175,1.825623 -0.97896,-0.291041 -1.95791,-0.687916 -2.93687,-1.137707 -2.751664,-1.269998 -5.291661,-3.042704 -6.932076,-5.079994 -0.238124,-0.317499 -0.634999,-0.476249 -1.005415,-0.476249 -0.740833,0 -1.349373,0.608541 -1.349373,1.296457 z"
       id="text16-8-7-85"
       style="font-size:26.4583px;line-height:12.6349px;font-family:nasin-nanpa;-inkscape-font-specification:nasin-nanpa;text-align:center;letter-spacing:0px;text-anchor:middle;fill:#000000;stroke-width:0.614201;stroke-linecap:square"
       aria-label="ona" />
    <path
       d="m 141.04444,101.52971 h 0.2541 c 3.07463,0 5.56483,-2.490201 5.56483,-5.564835 0,-3.074634 -2.4902,-5.539424 -5.56483,-5.539424 -3.07464,0 -5.56484,2.46479 -5.56484,5.539424 0,1.067228 0.30493,2.134457 0.88936,3.023814 -3.86235,-0.736896 -7.57224,-2.337739 -10.7231,-4.700887 l -1.27051,1.677073 c 4.70088,3.532018 10.54523,5.514015 16.41499,5.564835 z m 3.68447,-5.564835 c 0,1.905765 -1.52461,3.455787 -3.43037,3.455787 -1.90577,0 -3.45579,-1.550022 -3.45579,-3.455787 0,-1.905765 1.55002,-3.430377 3.45579,-3.430377 1.90576,0 3.43037,1.524612 3.43037,3.430377 z"
       id="text16-8-7-8-5"
       style="font-size:25.4102px;line-height:12.1344px;font-family:'linja laso';-inkscape-font-specification:'linja laso';text-align:center;letter-spacing:0px;text-anchor:middle;fill:#000000;stroke-width:0.566274;stroke-linecap:square"
       aria-label="ona" />
    <path
       d="m 171.77823,98.657085 h -0.26917 c -0.83198,0 -1.49267,-0.293641 -1.98207,-0.856453 -0.48941,-0.562812 -0.73411,-1.247975 -0.73411,-2.104429 0,-0.758573 0.29364,-1.345855 0.85646,-1.761847 0.56281,-0.415992 1.27244,-0.611752 2.12889,-0.611752 0.68517,0 1.24798,0.19576 1.68844,0.562812 0.17129,0.14682 0.36705,0.342581 0.53834,0.611752 0.17129,0.269171 0.34258,0.587283 0.46494,0.905394 0.12235,0.318111 0.19576,0.636223 0.19576,0.954334 0,0.318111 -0.0979,0.611753 -0.29365,0.905394 -0.22023,0.318111 -0.53834,0.587282 -0.95433,0.831983 -0.41599,0.244701 -0.9788,0.440462 -1.6395,0.562812 z m -1.10115,1.957605 c 1.05221,-0.0245 2.03102,-0.19576 2.91194,-0.53834 0.88093,-0.34258 1.59056,-0.831982 2.1289,-1.468205 0.51387,-0.636222 0.78304,-1.394795 0.78304,-2.300189 0,-0.269171 -0.0245,-0.562812 -0.0979,-0.856454 -0.31811,-1.321385 -0.88092,-2.300189 -1.68843,-2.960882 -0.80752,-0.660693 -1.83526,-1.003274 -3.0343,-1.052214 -0.80751,0 -1.56608,0.171291 -2.27572,0.489402 -0.7341,0.342581 -1.32138,0.831983 -1.78631,1.468206 -0.46493,0.636222 -0.68517,1.394796 -0.68517,2.300189 0,0.562813 0.0979,1.101155 0.26918,1.615027 0.17129,0.513872 0.39152,0.978804 0.63622,1.345855 -1.54162,-0.14682 -2.93641,-0.538342 -4.18439,-1.199034 -1.24797,-0.660693 -2.42254,-1.663967 -3.47475,-3.009823 -0.22023,-0.220231 -0.44047,-0.342581 -0.70964,-0.342581 -0.63622,0.09788 -0.95433,0.415991 -0.95433,0.929864 0,0.19576 0.0734,0.391521 0.19576,0.562812 1.49268,1.859728 3.18111,3.156643 5.08978,3.890746 1.90867,0.758571 3.98863,1.125621 6.21541,1.125621 z"
       id="text16-8-7-8-4-8"
       style="font-size:24.4701px;line-height:11.6855px;font-family:'linja lipamanka';-inkscape-font-specification:'linja lipamanka';text-align:center;letter-spacing:0px;text-anchor:middle;fill:#000000;stroke-width:0.545325;stroke-linecap:square"
       aria-label="ona" />
    <path
       style="font-size:31.5918px;line-height:15.0864px;font-family:'sitelen seli kiwen asuki';-inkscape-font-specification:'sitelen seli kiwen asuki';text-align:center;letter-spacing:0px;text-anchor:middle;fill:#000000;stroke-width:0.704036;stroke-linecap:square"
       d="m 190.15118,99.630526 q 0.0316,0 0.25273,0.03159 0.22114,0 0.50547,0 2.02187,0 4.92832,-0.06318 2.93804,-0.09478 3.00122,-0.157959 0.0632,-0.09478 -0.18955,-0.410694 -0.28433,-0.347509 -0.28433,-1.547998 0,-0.916162 0.0632,-1.042529 0.0948,-0.126367 0.56865,-1.547999 0.47388,-1.421631 0.56865,-1.737549 0.0316,-0.315918 0.25274,-0.315918 0.12636,0 0.63183,-0.663427 0.22115,-0.34751 0.44229,-0.537061 0.22114,-0.189551 0.78979,-0.34751 0.60025,-0.189551 1.48482,-0.189551 0.7582,0 1.42163,0.06318 0.66343,0.06318 1.04253,0.157959 0.41069,0.06318 0.69502,0.126367 0.28432,0.06318 0.44228,0.126367 0.15796,0.06318 0.18955,0.06318 0.25274,0 1.1689,0.758203 0.91616,0.726612 1.04253,0.726612 0.12637,0 0.44229,0.442285 0.31591,0.442285 0.56865,1.105713 0.28432,0.631836 0.28432,1.042529 0,0.852979 -0.18955,1.547999 -0.18955,0.663427 -0.3791,1.042529 -0.18955,0.34751 -0.18955,0.473877 0,0.252734 -0.7582,1.137305 -0.75821,0.884568 -1.04253,0.979348 -0.22114,0.0632 -1.32686,0.25273 -1.10571,0.18955 -1.32685,0.34751 -0.12637,0.0632 -6.1604,0.12637 -6.00245,0.0632 -6.22359,0.41069 l -0.0632,0.0632 q -0.0316,0 -0.18955,-0.0632 -0.12637,-0.0632 -0.47388,-0.12636 -0.31592,-0.0632 -0.7582,-0.0632 -0.3791,0.0316 -0.56866,0.0316 -1.95869,0 -2.33779,-0.47387 -0.28433,-0.31592 -0.15796,-0.47388 0.12637,-0.18955 0.12637,-0.53706 0,-0.28433 0.15796,-0.442286 0.18955,-0.157959 0.56865,-0.221143 0.3791,-0.09477 0.97935,-0.09477 z m 18.4812,-3.15918 q 0,-0.09478 -0.0316,-0.221143 0,-0.157959 -0.12637,-0.473877 -0.12637,-0.34751 -0.34751,-0.631836 -0.18955,-0.315918 -0.63183,-0.663428 -0.4107,-0.34751 -1.01094,-0.568652 -0.56866,-0.252735 -1.51641,-0.410694 -0.94775,-0.189551 -2.08506,-0.189551 -0.34751,0 -0.44228,0.09478 -0.0948,0.06318 -0.22115,0.252734 -0.0948,0.189551 -0.3791,0.379102 -0.47387,0.252734 -1.04253,1.57959 -0.53706,1.326856 -0.53706,1.769141 0,0.157959 0.0632,0.284326 0.22114,0.34751 1.54799,1.074121 1.35845,0.69502 2.08506,0.69502 1.10572,0 2.05347,-0.284326 0.94775,-0.284327 1.42163,-0.631836 0.47388,-0.34751 0.47388,-0.568653 0,-0.126367 0.22114,-0.284326 0.22114,-0.189551 0.22114,-0.442285 0,-0.284326 0.12637,-0.442285 0.15796,-0.157959 0.15796,-0.315918 z"
       id="text16-8-7-8-4-2-3"
       aria-label="ona" />
    <path
       d="m 242.26959,93.164773 -1.71043,-1.863151 -2.47402,-1.160652 -2.87108,-0.03054 -2.87109,1.282825 -1.64935,2.046412 -0.73304,1.954781 -0.15272,2.107499 0.4887,1.924237 -2.22967,-0.763586 -2.68783,-1.404999 -2.99326,-2.412933 -2.26021,-2.504564 -1.16065,0.855217 -0.91631,1.282825 2.35185,2.443477 3.54304,2.809998 3.39032,1.740974 4.0012,1.28283 3.11543,0.48869 2.47402,0.15272 2.62674,-0.54978 1.92423,-1.31337 1.405,-2.046412 0.45816,-2.596194 -0.36653,-2.138042 z m -4.94804,-0.61087 1.67989,0.855217 1.03848,1.313369 0.51924,1.618803 -0.0611,1.771521 -0.64141,1.282825 -1.43554,1.007932 -2.01587,0.42761 -2.35185,-0.42761 -1.37445,-1.25228 -0.51924,-1.77152 0.27489,-1.985325 1.1912,-1.771521 1.89369,-1.069021 z"
       id="text16-8-7-8-4-2-6-9"
       style="font-weight:500;font-size:31.2765px;line-height:14.9358px;font-family:Nishiki-teki-lili;-inkscape-font-specification:'Nishiki-teki-lili Medium';text-align:center;letter-spacing:0px;text-anchor:middle;fill:#000000;stroke-width:0.697006;stroke-linecap:square"
       aria-label="ona" />
    <path
       d="m 110.59841,125.08176 c 1.4552,0 2.64583,1.19063 2.64583,2.64583 0,1.45521 -1.19063,2.64583 -2.64583,2.64583 -1.45521,0 -2.64583,-1.19062 -2.64583,-2.64583 0,-1.4552 1.19062,-2.64583 2.64583,-2.64583 z m -5.13291,3.96875 c 0.58208,2.27541 2.67229,3.96874 5.13291,3.96874 2.91041,0 5.29166,-2.38124 5.29166,-5.29166 0,-2.91041 -2.38125,-5.29166 -5.29166,-5.29166 -2.46062,0 -4.55083,1.69333 -5.13291,3.96875 H 93.400513 c -0.740832,0 -1.322915,0.58208 -1.322915,1.32291 0,0.74084 0.582083,1.32292 1.322915,1.32292 z"
       id="text16-8-7-3-4"
       style="font-size:26.4583px;line-height:12.6349px;font-family:nasin-nanpa;-inkscape-font-specification:nasin-nanpa;text-align:center;letter-spacing:0px;text-anchor:middle;fill:#000000;stroke-width:0.614201;stroke-linecap:square"
       aria-label="lape" />
    <path
       d="m 141.55276,124.53862 c 1.75331,0 3.17628,1.42297 3.17628,3.17627 0,1.7533 -1.42297,3.17628 -3.17628,3.17628 -1.7533,0 -3.17627,-1.42298 -3.17627,-3.17628 0,-1.7533 1.42297,-3.17627 3.17627,-3.17627 z m -16.92319,4.2435 h 11.73951 c 0.48279,2.41397 2.61725,4.2435 5.18368,4.2435 2.92217,0 5.31073,-2.38856 5.31073,-5.31073 0,-2.92217 -2.38856,-5.28532 -5.31073,-5.28532 -2.56643,0 -4.70089,1.82953 -5.18368,4.2435 h -11.73951 z"
       id="text16-8-7-8-7-3"
       style="font-size:25.4102px;line-height:12.1344px;font-family:'linja laso';-inkscape-font-specification:'linja laso';text-align:center;letter-spacing:0px;text-anchor:middle;fill:#000000;stroke-width:0.566274;stroke-linecap:square"
       aria-label="lape" />
    <path
       d="m 173.0508,129.84427 h -0.22023 c -0.75857,0 -1.29691,-0.22023 -1.59056,-0.63622 -0.31811,-0.41599 -0.46493,-0.90539 -0.46493,-1.44374 0,-0.46493 0.17129,-0.90539 0.4894,-1.32138 0.31812,-0.41599 0.9054,-0.66069 1.73738,-0.78304 h 0.0489 c 0.70963,0 1.24798,0.22023 1.59056,0.68516 0.34258,0.46493 0.51387,0.9788 0.51387,1.54162 0,0.4894 -0.17129,0.92986 -0.4894,1.29691 -0.31811,0.36705 -0.85646,0.58728 -1.61503,0.66069 z m 0.0979,1.85973 c 1.29692,-0.12235 2.25125,-0.56281 2.91194,-1.32138 0.63623,-0.75858 0.95434,-1.61503 0.95434,-2.52042 0,-0.68517 -0.14682,-1.34586 -0.46493,-1.95761 -0.31812,-0.61176 -0.78305,-1.12563 -1.37033,-1.51715 -0.58728,-0.39152 -1.29692,-0.58728 -2.1289,-0.58728 -1.34585,0.0734 -2.3736,0.56281 -3.08323,1.44373 -0.46493,0.61176 -0.78304,1.19904 -0.92986,1.76185 h -10.20404 c -0.56281,0.0489 -0.88092,0.36705 -0.92986,0.92987 0,0.26917 0.0979,0.4894 0.26917,0.66069 0.17129,0.17129 0.39152,0.26917 0.66069,0.26917 h 10.22851 c 0.17129,0.58728 0.46493,1.12562 0.92986,1.6395 0.70963,0.80751 1.68844,1.19903 2.88747,1.19903 z"
       id="text16-8-7-8-4-9-8"
       style="font-size:24.4701px;line-height:11.6855px;font-family:'linja lipamanka';-inkscape-font-specification:'linja lipamanka';text-align:center;letter-spacing:0px;text-anchor:middle;fill:#000000;stroke-width:0.545325;stroke-linecap:square"
       aria-label="lape" />
    <path
       style="font-size:31.5918px;line-height:15.0864px;font-family:'sitelen seli kiwen asuki';-inkscape-font-specification:'sitelen seli kiwen asuki';text-align:center;letter-spacing:0px;text-anchor:middle;fill:#000000;stroke-width:0.704036;stroke-linecap:square"
       d="m 197.21194,125.19379 q 0.53706,0 0.88457,-0.31592 0.37911,-0.34751 0.47388,-0.60024 0.0948,-0.25274 0.0948,-0.34751 0,-0.34751 1.5164,-1.51641 1.548,-1.20049 2.43257,-1.20049 0.28433,0 0.91616,-0.0948 0.66343,-0.12637 1.10572,-0.12637 0.82138,0 1.16889,0.18955 0.37911,0.15796 0.85298,0.63184 0.15796,0.15795 1.10572,1.01093 1.39003,1.26367 1.39003,1.73755 0,0.22114 0.22115,0.69502 0.22114,0.44229 0.22114,0.53706 0,0.0316 -0.0632,0.0948 -0.0948,0.0632 -0.15796,0.41069 -0.0316,0.34751 -0.0948,0.85298 -0.0632,0.47388 -0.18955,0.7582 -0.18955,0.34751 -0.31592,0.97935 -0.0632,0.41069 -0.60024,1.10571 -0.53706,0.66343 -1.07412,1.01094 -0.0632,0.0632 -0.50547,0.25273 -0.44229,0.18955 -1.29526,0.44229 -0.82139,0.22114 -1.548,0.22114 -1.32686,0 -2.62212,-0.53706 -1.26367,-0.53706 -1.95869,-1.10571 -0.66343,-0.56865 -0.66343,-0.82139 0,-0.0948 -0.22114,-0.47388 -0.22115,-0.41069 -0.22115,-0.85297 v -0.50547 l -2.49575,0.0632 q -3.38032,0.0632 -3.53828,0.22114 -0.0948,0.0948 -0.85298,0.0948 -0.56865,0 -1.20049,-0.25274 -0.60024,-0.28432 -0.60024,-0.78979 0,-0.31592 0.31592,-0.72661 0.28432,-0.34751 0.50546,-0.4107 0.22115,-0.0632 0.97935,-0.0632 1.07412,0 1.42163,-0.25273 0.3791,-0.25274 0.63184,-0.25274 0.0316,0 0.12636,0.0316 0.12637,0 0.18956,0 h 0.18955 q 0.50546,0 1.20048,-0.12636 0.69502,-0.15796 0.94776,-0.15796 0.15796,0 0.56865,0.0948 0.44229,0.0948 0.7582,0.0948 z m 2.40098,0.94775 q 0,0.12637 0.0948,0.34751 0.12636,0.22114 0.12636,0.56865 0,0.63184 0.88457,1.42164 0.25274,0.22114 0.56866,0.60024 0.63183,0.72661 2.40097,0.72661 1.20049,0 1.548,-0.0632 0.34751,-0.0632 0.63184,-0.28433 0.34751,-0.28433 0.50547,-0.31592 0.25273,-0.0948 0.69502,-0.91616 0.47387,-0.85298 0.47387,-1.23208 0,-0.85298 -0.28432,-1.48481 -0.28433,-0.66343 -0.63184,-1.01094 -0.34751,-0.3791 -1.1689,-1.10571 -0.44228,-0.4107 -0.69502,-0.47388 -0.22114,-0.0948 -0.85297,-0.0948 -0.7898,0 -1.20049,0.22115 -0.3791,0.18955 -0.47388,0.18955 -0.0948,0 -0.69502,0.34751 -0.60024,0.34751 -1.26367,1.07412 -0.66343,0.72661 -0.66343,1.48481 z"
       id="text16-8-7-8-4-2-2-0"
       aria-label="lape" />
    <path
       d="m 238.31422,119.08861 h -1.77152 l -2.44348,0.97739 -2.04641,2.26021 -1.03848,2.62674 -5.71163,0.0916 -8.12456,-0.0611 -0.12217,1.61881 0.12217,1.03848 8.55217,-0.0611 5.40619,0.0611 0.51924,1.8326 1.06902,1.52718 1.83261,1.34391 2.1075,0.54978 2.65728,-0.0611 2.44348,-1.03847 1.64934,-1.80207 0.79413,-2.16858 0.24435,-2.65728 -0.67195,-2.1075 -1.1912,-1.8937 -1.95478,-1.46608 z m -2.16859,2.71836 1.405,-0.24434 1.67989,0.27489 1.31337,0.88576 0.9163,1.46608 0.42761,1.67989 -0.2138,2.04642 -1.16065,1.74097 -1.58826,0.76359 -2.26022,0.0305 -1.67989,-0.64141 -1.34391,-1.58826 -0.33598,-1.95478 0.36652,-1.98533 0.88576,-1.31336 z"
       id="text16-8-7-8-4-2-6-7-8"
       style="font-weight:500;font-size:31.2765px;line-height:14.9358px;font-family:Nishiki-teki-lili;-inkscape-font-specification:'Nishiki-teki-lili Medium';text-align:center;letter-spacing:0px;text-anchor:middle;fill:#000000;stroke-width:0.697006;stroke-linecap:square"
       aria-label="lape" />
    <path
       d="m 263.54784,24.963745 c 0.0959,-0.03197 0.22382,0.06395 0.35171,0.09592 0.22382,0.127895 0.44764,0.223817 0.57553,0.447633 0.22382,0.287764 0.51158,0.511581 0.70343,0.767371 0.15987,0.351712 0.38368,0.67145 0.4796,1.023162 0.0639,0.287764 0.19185,0.607502 0.0639,0.863293 -0.25579,0.415659 -0.51158,0.895266 -0.95921,1.087109 -0.31974,0.127895 -0.57553,0.319738 -0.89527,0.319738 -0.38368,0 -0.7354,-0.09592 -0.99119,-0.319738 -0.28776,-0.191843 -0.54355,-0.447633 -0.73539,-0.703424 -0.19185,-0.287764 -0.41566,-0.511581 -0.54356,-0.767371 -0.032,-0.191843 0,-0.383686 0.0959,-0.511581 0.19185,-0.447633 0.44764,-0.895266 0.7354,-1.310926 0.25579,-0.415659 0.57553,-0.895266 1.11908,-0.991188 z m -0.99118,-1.470794 c -0.67145,0.25579 -1.11909,0.895266 -1.59869,1.534742 -0.22382,0.255791 -0.28777,0.703424 -0.51159,1.023162 -0.15986,0.25579 -0.28776,0.575528 -0.38368,0.895266 -0.15987,0.511581 -0.35171,0.991188 -0.47961,1.534743 -0.22381,0.959214 -0.54355,1.950401 -0.63947,2.877642 -0.032,0.479607 -0.19185,0.92724 -0.22382,1.310925 -0.032,0.607503 -0.19184,1.183031 -0.28777,1.726586 -0.032,0.543554 -0.12789,1.087109 -0.15986,1.566716 -0.064,0.447633 -0.064,0.895266 -0.0959,1.310926 0.032,0.767371 0.032,1.534742 0.19185,2.302113 0.032,0.351712 0.22381,0.639476 0.31974,0.959214 0.0639,0.383686 0.28776,0.767372 0.6075,0.927241 0.12789,0.06395 0.22381,0 0.38368,0 0.0639,0.06395 0.15987,0.09592 0.22382,0.159869 0.064,-0.319738 0.064,-0.703424 0.064,-0.991188 0,-0.41566 -0.032,-0.831319 -0.064,-1.246978 -0.032,-0.383686 -0.032,-0.799345 -0.032,-1.215005 0,-0.415659 0,-0.831319 0.032,-1.246978 0,-0.543555 0.064,-1.055135 0.12789,-1.566716 0,-0.319738 -0.0639,-0.703424 0.032,-1.023162 0.12789,-0.575528 0.22382,-1.151057 0.31974,-1.758559 0.12789,-1.055135 0.41566,-2.110271 0.63947,-3.19738 0.15987,0.191843 0.35171,0.415659 0.54356,0.607502 0.15987,0.223817 0.44763,0.319738 0.67145,0.479607 0.54355,0.287764 1.11908,0.447633 1.75856,0.511581 0.032,0 0.0639,0 0.0959,0 0.67145,0 1.3429,-0.415659 1.91843,-0.767371 0.38368,-0.127895 0.63947,-0.447633 0.86329,-0.735398 0.12789,-0.223816 0.31974,-0.415659 0.35171,-0.671449 0.0639,-0.255791 0.19184,-0.543555 0.15987,-0.863293 0,-0.25579 0.032,-0.639476 -0.15987,-0.895266 -0.1279,-0.255791 -0.22382,-0.543555 -0.38369,-0.799345 -0.41565,-0.607503 -0.83131,-1.183031 -1.40684,-1.694612 -0.1279,-0.127895 -0.25579,-0.287764 -0.41566,-0.447633 -0.31974,-0.319738 -0.70343,-0.479607 -1.11909,-0.607502 -0.19184,-0.06395 -0.41565,-0.127896 -0.67144,-0.127896 -0.22382,0 -0.44764,0.06395 -0.67145,0.127896 z"
       id="text16-8-7-8-4-2-6-72"
       style="font-size:31.9738px;line-height:15.2688px;font-family:nasin-sitelen-pu;-inkscape-font-specification:nasin-sitelen-pu;text-align:center;letter-spacing:0px;text-anchor:middle;fill:#000000;stroke-width:0.697006;stroke-linecap:square"
       aria-label="mi" />
    <path
       d="m 263.38797,66.305867 c 0.31974,-0.09592 0.67145,-0.255791 1.05514,-0.255791 0.064,0 0.15987,0.03197 0.25579,0.03197 0.31974,0.191843 0.38369,0.575528 0.54355,0.895266 0.22382,0.511581 0.28777,1.055136 0.44764,1.59869 0,0.159869 0,0.319738 0,0.447634 0,0.447633 -0.032,0.863292 -0.0959,1.246978 -0.064,0.383686 -0.22382,0.67145 -0.35172,0.991188 -0.22381,0.383685 -0.51158,0.735397 -0.86329,0.92724 -0.25579,0.127895 -0.54355,0.223817 -0.83132,0.223817 -0.0959,0 -0.19184,0 -0.25579,0 -0.35171,-0.06395 -0.63947,-0.287765 -0.86329,-0.511581 -0.54355,-0.479607 -0.86329,-1.183031 -1.18303,-1.790533 -0.22382,-0.511581 -0.47961,-0.991188 -0.57553,-1.534743 0.19184,-0.06395 0.31974,-0.159869 0.44763,-0.223816 0.19185,-0.223817 0.28777,-0.543555 0.31974,-0.831319 0.19185,-0.25579 0.44764,-0.383686 0.7354,-0.575528 0.35171,-0.223817 0.76737,-0.511581 1.215,-0.639476 z m -3.38922,-11.670438 c -0.25579,0.127896 -0.41566,0.447634 -0.57553,0.735398 -0.28776,0.447633 -0.41566,0.92724 -0.6075,1.374873 -0.15987,0.607502 -0.31974,1.183031 -0.38369,1.758559 -0.0959,1.278952 -0.19184,2.525931 -0.19184,3.836856 0,0.447634 0.0959,0.959214 0.0959,1.406848 0.032,0.767371 0.0959,1.534742 0.25579,2.238166 0.19185,1.151056 0.44764,2.302113 0.8633,3.389222 0.19184,0.575529 0.51158,1.183031 0.73539,1.726586 0.15987,0.351712 0.38369,0.607502 0.57553,0.92724 0.41566,0.511581 0.79935,0.991188 1.3429,1.310926 0.22382,0.191843 0.51158,0.351712 0.76737,0.447633 0.28777,0.06395 0.57553,0.09592 0.83132,0.09592 0.19184,0 0.35171,0 0.54356,-0.03197 0.25579,0 0.51158,-0.191843 0.79934,-0.287765 0.25579,-0.09592 0.41566,-0.351711 0.63948,-0.543554 0.31974,-0.255791 0.57553,-0.543555 0.79934,-0.831319 0.19185,-0.319738 0.31974,-0.607502 0.51158,-0.863293 0.15987,-0.447633 0.1279,-0.895266 0.22382,-1.406847 0.0639,-0.25579 0.0959,-0.511581 0.0959,-0.799345 0,-0.09592 0,-0.191843 -0.032,-0.287764 0,-0.127895 0.032,-0.287764 0.032,-0.41566 0,-0.223816 -0.032,-0.415659 -0.0959,-0.607502 -0.19184,-0.735397 -0.44763,-1.438821 -0.83132,-2.142244 -0.44763,-0.575529 -1.02316,-1.055136 -1.75856,-1.215005 -0.0639,0 -0.15987,0 -0.22381,0 -0.38369,0 -0.79935,0.09592 -1.15106,0.191843 -0.51158,0.127895 -0.99119,0.351712 -1.40685,0.639476 -0.31974,0.223817 -0.67145,0.319738 -0.95921,0.575528 -0.25579,0.223817 -0.47961,0.447634 -0.76737,0.639476 -0.25579,-1.055135 -0.35172,-2.078297 -0.44764,-3.165406 0,-0.479607 -0.032,-1.023161 -0.032,-1.534742 0,-0.511581 -0.0639,-0.991188 -0.0639,-1.502769 0,-0.127895 0,-0.25579 0,-0.383686 0.0639,-0.191842 0.0959,-0.415659 0.15987,-0.639476 0.032,-0.383685 0,-0.767371 0.064,-1.151056 0.0959,-0.287765 0.15987,-0.543555 0.19184,-0.831319 0.1279,-0.319738 0.25579,-0.67145 0.41566,-0.991188 0.032,-0.191843 0.25579,-0.319738 0.35171,-0.479607 0.032,-0.223817 0.032,-0.415659 0.032,-0.639476 -0.032,-0.191843 -0.1279,-0.351712 -0.28777,-0.511581 -0.15987,-0.03197 -0.31974,-0.127895 -0.51158,-0.03197 z"
       id="text16-8-7-8-4-2-6-72-5"
       style="font-size:31.9738px;line-height:15.2688px;font-family:nasin-sitelen-pu;-inkscape-font-specification:nasin-sitelen-pu;text-align:center;letter-spacing:0px;text-anchor:middle;fill:#000000;stroke-width:0.697006;stroke-linecap:square"
       aria-label="sina" />
    <path
       d="m 266.96904,93.64349 c 0.38369,-0.255791 0.83132,-0.575529 1.3429,-0.575529 0.064,0 0.12789,0 0.19184,0 0.38369,0.09592 0.76737,0.41566 1.11909,0.67145 0.31973,0.223817 0.44763,0.607502 0.67144,0.863293 0.1279,0.223816 0.22382,0.447633 0.31974,0.67145 0.15987,0.415659 0.28777,0.895266 0.28777,1.342899 0,0.255791 -0.032,0.543555 -0.15987,0.767371 -0.1279,0.41566 -0.44764,0.767372 -0.86329,0.927241 -0.47961,0.319738 -1.08711,0.447633 -1.66264,0.575528 -0.54356,0.127895 -1.08711,0.127895 -1.66264,0.127895 -0.31974,-0.03197 -0.67145,-0.127895 -0.99119,-0.159869 0.1279,0 0.25579,-0.06395 0.35171,-0.06395 0,-0.223817 0,-0.447634 0,-0.67145 0,-0.319738 0,-0.67145 -0.0959,-0.991188 -0.032,-0.127895 0,-0.25579 -0.032,-0.415659 -0.032,-0.127896 -0.19184,-0.255791 -0.22382,-0.383686 -0.032,-0.223817 -0.032,-0.415659 0,-0.639476 0.032,-0.319738 0.0959,-0.639476 0.25579,-0.863293 0.31974,-0.447633 0.7354,-0.799345 1.15106,-1.18303 z m -0.41566,-1.822507 c -0.51158,0.159869 -0.86329,0.479607 -1.27895,0.799345 -0.25579,0.223817 -0.57553,0.447633 -0.79935,0.735398 -0.12789,0.25579 -0.31973,0.479607 -0.44763,0.767371 -0.1279,0.25579 -0.1279,0.511581 -0.19184,0.831319 0,0.09592 0,0.159869 0,0.223816 0,0.479607 0.0959,0.895267 0.15987,1.374874 0.12789,0.383685 0.22381,0.767371 0.44763,1.119083 0.064,0.223816 0.12789,0.479607 0.31974,0.671449 0.15987,0.09592 0.22381,0.287765 0.22381,0.447634 -0.4796,-0.03197 -0.86329,-0.223817 -1.27895,-0.319738 -1.11908,-0.351712 -2.23816,-0.799345 -3.2933,-1.374874 -0.47961,-0.223816 -0.89527,-0.543554 -1.3429,-0.831319 -0.44763,-0.223816 -0.83132,-0.479607 -1.215,-0.767371 -0.19185,-0.127895 -0.31974,-0.319738 -0.51158,-0.383685 -0.35172,-0.255791 -0.57553,-0.543555 -0.89527,-0.767372 -0.22382,-0.223816 -0.44763,-0.51158 -0.67145,-0.767371 -0.44763,-0.383685 -0.76737,-0.92724 -1.08711,-1.374873 -0.22382,-0.447633 -0.76737,-0.703424 -1.24698,-0.703424 -0.31974,0.03197 -0.54355,0.447633 -0.38368,0.703424 0.19184,0.287764 0.28776,0.543554 0.51158,0.767371 0.15987,0.223817 0.38368,0.447633 0.57553,0.67145 0.31973,0.415659 0.73539,0.735397 1.05513,1.087109 0.67145,0.67145 1.37487,1.374873 2.20619,1.85448 0.15987,0.09592 0.31974,0.319738 0.47961,0.41566 0.99119,0.447633 1.82251,1.151057 2.81369,1.630664 0.38369,0.159869 0.79935,0.447633 1.21501,0.575528 0.25579,0.09592 0.54355,0.25579 0.79934,0.351712 0.41566,0.09592 0.76738,0.287764 1.11909,0.351712 0.28776,0.09593 0.6075,0.159865 0.83132,0.287765 0.31973,0.22382 0.67145,0.19184 0.99118,0.22382 0.76738,0.12789 1.53475,0.12789 2.30212,0.12789 0.83132,-0.12789 1.66264,-0.31974 2.43001,-0.639475 0.41566,-0.159869 0.79934,-0.383686 1.15105,-0.607503 0.31974,-0.287764 0.51158,-0.607502 0.7354,-0.92724 0.19184,-0.287764 0.19184,-0.703423 0.22382,-1.023161 0.032,-0.159869 0.0639,-0.319738 0.0639,-0.479607 0,-0.223817 -0.032,-0.447634 -0.0639,-0.639476 0,-0.607503 -0.31974,-1.119083 -0.54356,-1.662638 -0.12789,-0.447633 -0.44763,-0.767371 -0.76737,-1.087109 -0.35171,-0.447633 -0.79934,-0.863293 -1.31092,-1.215005 -0.22382,-0.223816 -0.47961,-0.415659 -0.79935,-0.543554 -0.41566,-0.223817 -0.89527,-0.287764 -1.3429,-0.287764 -0.12789,0 -0.25579,0 -0.38368,0 -0.2558,0.09592 -0.54356,0.223816 -0.79935,0.383685 z"
       id="text16-8-7-8-4-2-6-72-5-7"
       style="font-size:31.9738px;line-height:15.2688px;font-family:nasin-sitelen-pu;-inkscape-font-specification:nasin-sitelen-pu;text-align:center;letter-spacing:0px;text-anchor:middle;fill:#000000;stroke-width:0.697006;stroke-linecap:square"
       aria-label="ona" />
    <path
       d="m 268.40786,125.7132 c 0.1279,-0.032 0.25579,0.0959 0.38369,0.22381 0.0959,0.1279 0.31973,0.1279 0.51158,0.19185 0.63947,0.12789 1.215,0.31973 1.79053,0.4796 0.28776,0.0959 0.22382,0.41566 0.22382,0.63948 -0.032,0.57553 -0.0959,1.215 -0.54356,1.66264 -0.25579,0.31974 -0.57553,0.6075 -0.99119,0.76737 -0.25579,0.15987 -0.54355,0.28776 -0.89526,0.28776 -0.19185,0.032 -0.31974,-0.0639 -0.47961,-0.0639 -0.31974,-0.032 -0.6075,-0.1279 -0.83132,-0.31974 -0.15987,-0.15987 -0.35171,-0.25579 -0.44763,-0.44764 -0.1279,-0.25579 -0.19184,-0.54355 -0.19184,-0.79934 0,-0.25579 0.032,-0.47961 0.0639,-0.7354 0.0959,-0.44763 0.25579,-0.83132 0.57553,-1.15106 0.19184,-0.28776 0.44764,-0.54355 0.83132,-0.73539 z m -0.86329,-1.3429 c -0.31974,0.22381 -0.63948,0.41566 -0.89527,0.70342 -0.15987,0.19184 -0.38368,0.38369 -0.47961,0.63948 -0.12789,0.22381 -0.28776,0.51158 -0.38368,0.76737 -0.0639,0.19184 -0.1279,0.35171 -0.28777,0.51158 -0.35171,0.064 -0.76737,0.064 -1.11908,0.12789 -0.95921,0.0959 -1.91843,0.15987 -2.87764,0.15987 -0.31974,0 -0.63948,-0.032 -0.95921,-0.032 -0.47961,-0.032 -0.92724,0 -1.43883,-0.0959 -0.63947,-0.032 -1.24697,-0.032 -1.88645,-0.0959 -0.70342,0 -1.37487,-0.032 -2.0783,-0.032 -0.19184,0 -0.35171,0 -0.54355,0 -0.41566,-0.032 -0.79935,-0.032 -1.21501,-0.0959 -0.22381,0.0639 -0.54355,0.0959 -0.67145,0.31974 0.032,0.19184 0.15987,0.35171 0.2558,0.54355 0.15986,0.19185 0.19184,0.41566 0.41565,0.44764 0.0959,0.0959 0.22382,0.064 0.35172,0.064 0.19184,0 0.38368,0.032 0.54355,0.0639 0.35171,0 0.67145,0.064 1.05514,0.064 0.89526,0.1279 1.8225,0.032 2.78172,0.15987 0.35171,0 0.76737,0 1.11908,0.064 0.41566,0.032 0.83132,0.032 1.27895,0.0959 0.38369,0.032 0.79935,0 1.24698,0.032 0.15987,0 0.28776,0 0.44763,0 0.8633,0 1.72659,-0.0959 2.62186,-0.0959 0.19184,0 0.41565,-0.032 0.63947,0 0.19184,0.22382 0.19184,0.54356 0.31974,0.76737 0.12789,0.22382 0.22382,0.44764 0.38368,0.67145 0.15987,0.19184 0.31974,0.38369 0.51159,0.6075 0.19184,0.25579 0.54355,0.35172 0.79934,0.54356 0.38369,0.22382 0.83132,0.25579 1.27895,0.35171 0.25579,0 0.54356,0 0.79935,-0.12789 0.44763,-0.22382 0.89526,-0.28777 1.31092,-0.54356 0.63948,-0.38369 1.18303,-0.89527 1.50277,-1.53474 0.15987,-0.28777 0.22382,-0.6075 0.35171,-0.89527 0.1279,-0.28776 0.0959,-0.6075 0.1279,-0.92724 -0.032,-0.44763 0.064,-0.89526 -0.1279,-1.27895 -0.22381,-0.6075 -0.76737,-1.02316 -1.31092,-1.27895 -0.54356,-0.19185 -1.11909,-0.41566 -1.75856,-0.41566 -0.0959,-0.22382 -0.0959,-0.44764 -0.31974,-0.57553 -0.0959,-0.0959 -0.22382,-0.22382 -0.38368,-0.19184 -0.47961,0.15987 -1.02317,0.22381 -1.40685,0.51158 z"
       id="text16-8-7-8-4-2-6-72-5-7-7"
       style="font-size:31.9738px;line-height:15.2688px;font-family:nasin-sitelen-pu;-inkscape-font-specification:nasin-sitelen-pu;text-align:center;letter-spacing:0px;text-anchor:middle;fill:#000000;stroke-width:0.697006;stroke-linecap:square"
       aria-label="lape" />
  </g>
</svg>
