<?xml version="1.0" encoding="UTF-8" standalone="no"?>
<!-- Created with Inkscape (http://www.inkscape.org/) -->

<svg
   width="219.99997"
   height="219.99998"
   viewBox="0 0 58.208326 58.208331"
   version="1.1"
   id="svg1"
   inkscape:version="1.4.4 (dcaf3e7d9e, 2026-05-05)"
   sodipodi:docname="heads2.svg"
   xmlns:inkscape="http://www.inkscape.org/namespaces/inkscape"
   xmlns:sodipodi="http://sodipodi.sourceforge.net/DTD/sodipodi-0.dtd"
   xmlns="http://www.w3.org/2000/svg"
   xmlns:svg="http://www.w3.org/2000/svg">
  <sodipodi:namedview
     id="namedview1"
     pagecolor="#000000"
     bordercolor="#ffffff"
     borderopacity="1"
     inkscape:showpageshadow="2"
     inkscape:pageopacity="0.0"
     inkscape:pagecheckerboard="0"
     inkscape:deskcolor="#0d0d0d"
     inkscape:document-units="mm"
     showgrid="true"
     inkscape:zoom="0.39107157"
     inkscape:cx="97.168915"
     inkscape:cy="365.66197"
     inkscape:window-width="1023"
     inkscape:window-height="1052"
     inkscape:window-x="0"
     inkscape:window-y="0"
     inkscape:window-maximized="0"
     inkscape:current-layer="layer1" />
  <defs
     id="defs1" />
  <g
     inkscape:label="Layer 1"
     inkscape:groupmode="layer"
     id="layer1"
     transform="translate(-143.40678,38.959925)">
    <path
       d="m 155.75394,-18.494729 c 5.27403,0 9.67426,-4.2754 9.67426,-9.580641 0,-5.305241 -4.40023,-9.549434 -9.67426,-9.549434 -5.1492,0 -9.48702,4.056949 -9.67426,9.237361 v 13.013444 h 1.56036 v -7.458545 c 1.56037,2.371755 4.33782,4.337815 8.1139,4.337815 z m 0,-17.56971 c 4.40023,0 8.1139,3.557632 8.1139,7.989069 0,4.431437 -3.68246,8.020276 -8.1139,8.020276 -4.43144,0 -8.1139,-3.588839 -8.1139,-8.020276 v -0.156037 c 0.0624,-4.369022 3.80729,-7.833032 8.1139,-7.833032 z"
       id="text16-8-7-0"
       style="font-size:31.2073px;line-height:14.9027px;font-family:'linja pona 4.9';-inkscape-font-specification:'linja pona 4.9, ';text-align:center;letter-spacing:0px;text-anchor:middle;stroke-width:0.724443;stroke-linecap:square"
       aria-label="mi" />
    <path
       d="m 179.39016,-29.303997 v -7.458544 h -1.56036 v 12.982237 c 0.18724,5.180411 4.52506,9.23736 9.67426,9.23736 5.27404,0 9.67427,-4.244192 9.67427,-9.549433 0,-5.336449 -4.36903,-9.549434 -9.67427,-9.549434 -3.77608,0 -6.55353,1.96606 -8.1139,4.337814 z m 8.1139,-2.777449 c 4.43144,0 8.1139,3.526425 8.1139,7.989069 0,4.462643 -3.68246,7.989068 -8.1139,7.989068 -4.43143,0 -8.1139,-3.526425 -8.1139,-7.989068 v -0.156037 c 0.0624,-4.400229 3.74488,-7.833032 8.1139,-7.833032 z"
       id="text16-8-7-0-5"
       style="font-size:31.2073px;line-height:14.9027px;font-family:'linja pona 4.9';-inkscape-font-specification:'linja pona 4.9, ';text-align:center;letter-spacing:0px;text-anchor:middle;stroke-width:0.724443;stroke-linecap:square"
       aria-label="sina" />
    <path
       d="m 156.59654,-4.6380384 c -5.64852,0 -9.86151,4.80592418 -9.86151,10.3296163 0,3.5264249 1.62278,6.8343991 4.64989,8.7692511 h -6.49112 v 1.560365 h 11.70274 c 5.67973,0 9.89271,-4.805924 9.89271,-10.3296161 0,-5.55489942 -4.21298,-10.3296163 -9.89271,-10.3296163 z m 0,19.0988674 c -4.77472,0 -8.30114,-4.119363 -8.30114,-8.7692511 0,-4.6498877 3.52642,-8.7692513 8.30114,-8.7692513 4.74351,0 8.33235,4.1505709 8.33235,8.7692513 0,4.6186801 -3.58884,8.7692511 -8.33235,8.7692511 z"
       id="text16-8-7-0-4"
       style="font-size:31.2073px;line-height:14.9027px;font-family:'linja pona 4.9';-inkscape-font-specification:'linja pona 4.9, ';text-align:center;letter-spacing:0px;text-anchor:middle;stroke-width:0.724443;stroke-linecap:square"
       aria-label="ona" />
    <path
       d="m 189.65737,15.947268 c 5.61731,0 9.20615,-5.305241 9.20615,-10.5168598 0,-5.2116191 -3.58884,-10.5480674 -9.20615,-10.5480674 -5.27404,0 -8.89408,4.7747169 -9.20616,9.7678849 h -4.99317 v 1.560365 h 4.99317 c 0.31208,4.9931683 3.90092,9.7366773 9.20616,9.7366773 z m 0,-19.5045622 c 4.21298,0 7.64578,4.0257417 7.64578,8.9877024 0,4.9307538 -3.4328,8.9564948 -7.64578,8.9564948 -4.21299,0 -7.677,-4.025741 -7.677,-8.9564948 0,-4.9619607 3.46401,-8.9877024 7.677,-8.9877024 z"
       id="text16-8-7-0-5-9"
       style="font-size:31.2073px;line-height:14.9027px;font-family:'linja pona 4.9';-inkscape-font-specification:'linja pona 4.9, ';text-align:center;letter-spacing:0px;text-anchor:middle;stroke-width:0.724443;stroke-linecap:square"
       aria-label="lape" />
  </g>
</svg>
